<?xml version="1.0" encoding="utf-8"?>
<!-- Generator: Adobe Illustrator 16.0.0, SVG Export Plug-In . SVG Version: 6.00 Build 0)  -->
<!DOCTYPE svg PUBLIC "-//W3C//DTD SVG 1.1//EN" "http://www.w3.org/Graphics/SVG/1.1/DTD/svg11.dtd">
<svg version="1.1" id="Layer_1" xmlns="http://www.w3.org/2000/svg" xmlns:xlink="http://www.w3.org/1999/xlink" x="0px" y="0px"
	 width="300px" height="250px" viewBox="0 0 300 250" enable-background="new 0 0 300 250" xml:space="preserve">
<g>
	<path fill="#FFFFFF" d="M102.336,185.597c-0.183,0.31-0.407,0.56-0.715,0.715"/>
	<path fill="#FFFFFF" d="M108.835,134.771c0.755,0,1.361-0.606,1.361-1.363c0-0.753-0.606-1.374-1.361-1.374
		c-0.748,0-1.357,0.621-1.357,1.374C107.479,134.164,108.087,134.771,108.835,134.771L108.835,134.771z"/>
	<path fill="#FFFFFF" d="M171.808,77.361v-0.019H122.84v0.019h-0.007l0.04,39.549c0,3.818,1.613,7.158,3.845,8.183l18.834,11.249
		c0.418,0.474,1.03,0.771,1.721,0.771c0.593,0,1.126-0.23,1.529-0.592l19.125-11.428c2.236-1.024,3.852-4.364,3.852-8.183
		l0.038-39.549H171.808L171.808,77.361z M139.113,88.812h-4.235V78.684h4.235V88.812L139.113,88.812z M136.038,92.339l0.604-0.625
		l-0.381-0.692l0.797,0.084l0.47-0.842L138,91.093l0.8-0.071l-0.374,0.692l0.602,0.625l-0.766,0.151v0.855l-0.734-0.545
		l-0.724,0.545V92.49L136.038,92.339L136.038,92.339z M124.217,104.937v-9.612h5.143v9.612H124.217L124.217,104.937z
		 M125.066,91.022l0.788,0.084l0.48-0.842l0.468,0.829l0.797-0.071l-0.369,0.692l0.6,0.625l-0.767,0.151v0.855l-0.729-0.545
		l-0.729,0.545V92.49l-0.764-0.151l0.602-0.625L125.066,91.022L125.066,91.022z M130.874,100.799l0.79,0.08l0.477-0.833l0.466,0.823
		l0.802-0.07l-0.374,0.687l0.6,0.63l-0.767,0.146v0.86l-0.727-0.545l-0.729,0.545v-0.86l-0.769-0.146l0.602-0.63L130.874,100.799
		L130.874,100.799z M134.288,93.068c-0.04-0.254-0.376-0.324-0.52-0.324c-0.456,0-0.642,0.757-1.022,0.775
		c-0.285,0.019-0.487,0.042-0.487-0.3c0-0.26,0.583-0.462,0.807-0.678c-3.175,0-3.238,1.453-3.732,1.453
		c-0.834,0,0.693-1.529,1.136-1.98c-0.642-0.104-1.014-0.894-1.716-1.289c0.327-0.479,0.517-0.273,0.929,0.057
		c0-0.33,0.254-0.724,0.993-0.724c1.417,0,1.022,1.372,1.25,1.372s-0.019-1.372,0.936-1.372c1.406,0,3.169,3.621,1.573,3.621
		C133.748,93.68,134.3,93.166,134.288,93.068L134.288,93.068z M130.644,82.482l0.602-0.625l-0.372-0.696l0.79,0.085l0.477-0.838
		l0.466,0.829l0.802-0.076l-0.374,0.696l0.6,0.625l-0.767,0.146v0.856l-0.727-0.545l-0.729,0.545v-0.856L130.644,82.482
		L130.644,82.482z M129.36,78.684v10.128h-5.143V78.684H129.36L129.36,78.684z M139.113,130.934l-11.719-6.998
		c-1.956-1.335-2.92-3.687-3.177-6.526v-11.126h14.896V130.934L139.113,130.934z M134.878,104.937v-9.612h4.235v9.612H134.878
		L134.878,104.937z M154.201,131.733l-5.413,3.234h-0.092c-0.395,0.302-0.882,0.499-1.425,0.499c-0.555,0-1.056-0.197-1.446-0.518
		l-5.379-3.216v-25.451h13.755V131.733L154.201,131.733z M154.201,104.937h-13.755V78.684h13.755V104.937L154.201,104.937z
		 M170.43,117.409c-0.256,2.84-1.22,5.191-3.176,6.526l-11.717,6.998v-24.651h14.893V117.409L170.43,117.409z M170.43,104.937
		h-14.893V78.684h14.893V104.937L170.43,104.937z"/>
	<path fill="#FFFFFF" d="M138.323,115.345c-0.076-0.16-1.867,0.597-1.359,0.54c0.056-0.526,1.046-1.608,1.498-2.003
		c-0.087-0.63-0.884-0.062-1.724,0.376c2.789-3.997,1-2.36-0.559-2.069c2.49-2.68,1.834-2.643,0-1.805
		c1.441-1.144,1.747-2.502,1.526-2.902c-1.35,1.8-2.596,1.524-2.596,3.193c0,1.1-0.397,2.906-0.962,3.518
		c-0.731,0.789-0.174-2.944-2.081-2.944c-0.613,0-2.055-0.056-2.49,0.692c0.388,0,0.971,0.996,0.971,1.387
		c0,0.395,0.362,1.485-0.292,1.485s-1.413-1.373-1.413-2.036c0-0.657-0.045-0.503-0.045-1.444c0-1.589-2.572-3.809-3.621-3.809
		c0,1.101,1.437,1.365,1.437,2.77c-0.607,0-1.481-1.142-1.481-0.437c0,0.706,0.917,0.833,0.917,1.453
		c0,0.616-1.046-0.221-1.046,0.438c0,0.582,0.571,0.479,0.71,1.048c-0.426-0.118-0.807-0.061-0.882,0.156
		c-0.069,0.188,0.126,0.432,0.447,0.61c-0.148,0.136-0.275,0.471-0.275,1.393c0,3.122,1.958,4.581,3.395,4.581
		c1.023,0,0.866-0.721,0.987-1.063c0.048,0.531,0.551-0.263,0.551,0.663c0,0.964-0.997,0.54-0.997,1.378
		c0,1.114,1.571-0.038,1.571,1.194c0,1.495-0.188,1.468-0.188,2.041c0,0.385,1.644-0.555,1.545-0.721
		c0.392,0.142,0.375,1.304,1.105,1.275c0.475-0.019,0.576-1.19,0.947-1.288c-0.219,0.056,1.486,1.109,1.486,0.573
		c0-1.448-0.595-0.837-0.595-1.833c0-0.923,2.015-0.744,1.696-1.214c-0.266-0.396-0.447-0.155-0.663-0.842
		c0.038,0.127-1.585-2.314,0.336-1.06C138.203,119.966,138.429,115.569,138.323,115.345L138.323,115.345z"/>
	<path fill="#FFFFFF" d="M190.562,125.686c0.894,0,1.611-0.636,1.611-1.42c0-0.781-0.718-1.417-1.611-1.417
		c-0.889,0-1.61,0.636-1.61,1.417C188.951,125.05,189.673,125.686,190.562,125.686L190.562,125.686z"/>
	<path fill="#FFFFFF" d="M184.054,129.56c0.886,0,1.605-0.64,1.605-1.42c0-0.785-0.72-1.421-1.605-1.421
		c-0.892,0-1.61,0.636-1.61,1.421C182.443,128.92,183.162,129.56,184.054,129.56L184.054,129.56z"/>
	<path fill="#FFFFFF" d="M106.646,138.48c0.887,0,1.611-0.634,1.611-1.42c0-0.785-0.724-1.415-1.611-1.415
		c-0.886,0-1.61,0.63-1.61,1.415C105.036,137.847,105.76,138.48,106.646,138.48L106.646,138.48z"/>
	<path fill="#FFFFFF" d="M111.664,138.909c0.893,0,1.611-0.631,1.611-1.416s-0.718-1.424-1.611-1.424
		c-0.889,0-1.608,0.639-1.608,1.424S110.775,138.909,111.664,138.909L111.664,138.909z"/>
	<path fill="#FFFFFF" d="M251.012,71.371c2.391,2.84,2.905,7.401,1.199,10.666c-0.941-0.081-0.774-1.284-0.941-1.976
		c-1.709-3.178-3.074-7.227-1.539-10.833C250.845,69.395,250.412,70.769,251.012,71.371L251.012,71.371z"/>
	<path fill="#FFFFFF" d="M46.538,75.241c-0.508,2.063-0.508,4.904,0,6.795c-0.423,0.437-0.338-0.424-0.764-0.339
		c-3.334-2.408-1.794-7.144-2.645-10.496c0.169-0.259,0.593-0.344,0.851-0.169C45.513,72.062,46.199,73.524,46.538,75.241
		L46.538,75.241z"/>
	<path fill="#FFFFFF" d="M258.356,75.499c0.515,0.95-0.425,1.895-1.109,2.323c-0.769,0.179-1.625-0.258-2.138-0.94
		c-0.254-0.95,0.257-1.807,1.03-2.243C256.989,74.554,257.844,74.729,258.356,75.499L258.356,75.499z"/>
	<path fill="#FFFFFF" d="M41.33,79.29c-0.167,0.771-0.426,1.547-1.11,1.89c-0.51,0-1.281,0-1.62-0.428
		c-0.515-0.438-0.6-1.208-0.348-1.811c0.348-0.602,1.028-0.687,1.625-0.771C40.479,78.424,41.076,78.603,41.33,79.29L41.33,79.29z"
		/>
	<path fill="#FFFFFF" d="M261.687,80.752c0.172,0.512,0.172,0.86,0,1.373c-0.593,0.776-1.448,1.115-2.307,0.776
		c-0.595-0.347-0.767-0.945-0.934-1.467c0.167-0.682,0.851-1.289,1.45-1.542C260.663,79.892,261.176,80.314,261.687,80.752
		L261.687,80.752z"/>
	<path fill="#FFFFFF" d="M256.819,80.837c0.685,0.343,0.17,1.199,0.086,1.717c-0.427,0.431-1.021,1.118-1.796,0.86
		c-0.428-0.429-0.933-0.429-1.107-1.03c0-0.866,0.341-1.722,1.197-1.976C255.884,80.229,256.306,80.578,256.819,80.837
		L256.819,80.837z"/>
	<path fill="#FFFFFF" d="M250.586,82.125c0,0.951,0.082,2.154-1.025,2.323c-1.025,0.344-1.707-0.521-1.964-1.208
		c-0.085-0.855,0.424-1.721,1.282-2.06C249.561,81.18,250.16,81.612,250.586,82.125L250.586,82.125z"/>
	<path fill="#FFFFFF" d="M50.638,82.554c0.256,0.86-0.597,1.373-1.105,1.809c-0.6,0.169-1.368-0.343-1.711-0.949
		c-0.6-0.599,0.169-1.115,0.343-1.632C49.016,81.006,50.297,81.612,50.638,82.554L50.638,82.554z"/>
	<path fill="#FFFFFF" d="M45.513,82.815c0,0.687-0.341,1.374-0.934,1.632c-0.685,0.259-1.366-0.258-1.711-0.776
		c-0.428-0.856,0.086-1.636,0.769-1.975C44.579,81.349,45.172,82.215,45.513,82.815L45.513,82.815z"/>
	<path fill="#FFFFFF" d="M229.918,83.154c0.851,1.811,1.532,3.96,1.71,6.199c-0.345,1.636,0.255,3.781-0.945,4.9
		c-1.198-0.433-1.28-1.89-2.049-2.662c-1.538-3.01-0.171-6.545,0.344-9.466C229.659,81.867,229.659,82.727,229.918,83.154
		L229.918,83.154z"/>
	<path fill="#FFFFFF" d="M41.503,84.189c0.251,1.035-0.517,1.547-1.112,2.149c-1.023,0.258-1.708-0.513-2.14-1.204
		c-0.084-0.856,0.433-1.721,1.117-2.06C40.22,82.985,41.076,83.414,41.503,84.189L41.503,84.189z"/>
	<path fill="#FFFFFF" d="M243.41,86.682c1.112,2.502,1.196,5.512,0.428,8.258l-0.515,0.433c-1.195-2.323-2.904-4.472-3.5-6.97
		c0-1.805,0.339-3.437,1.026-4.9c0.594-0.427,0.938,0.085,1.193,0.603C242.128,85.046,242.558,86.169,243.41,86.682L243.41,86.682z"
		/>
	<path fill="#FFFFFF" d="M254.177,85.135c-0.091,0.86-0.428,1.805-1.284,2.064c-0.856,0.179-1.707-0.084-1.966-1.03
		c-0.259-0.86,0.259-1.637,0.938-2.064C252.808,83.587,253.749,84.448,254.177,85.135L254.177,85.135z"/>
	<path fill="#FFFFFF" d="M45.604,87.802c0,0.691-0.6,1.462-1.283,1.636c-0.684,0.512-1.192-0.343-1.794-0.602
		c-0.257-0.691-0.431-1.288,0-1.98c0.258-0.517,0.853-0.517,1.368-0.686C44.664,86.597,45.43,86.94,45.604,87.802L45.604,87.802z"/>
	<path fill="#FFFFFF" d="M49.357,87.378c0.344,0.855-0.598,1.284-0.938,1.717c-1.022,0.343-1.537-0.433-1.961-1.035
		c-0.176-0.86,0.341-1.378,0.938-1.89C48.418,85.91,48.934,86.597,49.357,87.378L49.357,87.378z"/>
	<path fill="#FFFFFF" d="M256.565,87.115c-0.087,1.118-1.799,2.238-1.966,3.353c-0.94,2.328-2.988,4.049-5.295,4.821
		c-0.516,0.433-1.197,1.034-1.966,1.118c-0.17-1.721,1.368-3.272,2.307-4.815C251.437,89.264,253.917,87.802,256.565,87.115
		L256.565,87.115z"/>
	<path fill="#FFFFFF" d="M43.895,90.726c1.277,1.468,1.961,2.755,3.501,4.045c0.087,0.348-0.174,0.856-0.598,0.856
		c-4.185-0.254-7.004-4.557-9.057-7.567c0.259-0.945,1.369-0.169,1.968-0.258C41.163,88.92,42.785,89.264,43.895,90.726
		L43.895,90.726z"/>
	<path fill="#FFFFFF" d="M257.762,91.93c-0.172,3.697-1.965,7.486-5.295,9.293c-0.943,0.343-1.968,1.288-2.906,0.686
		c1.791-3.696,4.525-6.706,7.515-9.979H257.762L257.762,91.93z"/>
	<path fill="#FFFFFF" d="M241.361,94.422c0.257,1.298-0.425,2.069-1.45,2.501c-0.94,0.084-1.54-0.696-1.966-1.382
		c-0.085-0.856,0.426-1.628,1.196-1.892c0.252-0.252,0.682-0.252,1.021-0.252C240.677,93.566,240.937,93.999,241.361,94.422
		L241.361,94.422z"/>
	<path fill="#FFFFFF" d="M39.192,95.203c1.627,1.119,3.078,2.666,4.613,4.043c-1.107,0.772-2.476,0.085-3.755,0.085
		c-2.906-1.034-4.87-3.526-7.86-4.392c0.085-0.941,1.199-0.603,1.794-0.856C35.865,93.914,37.4,94.771,39.192,95.203L39.192,95.203z
		"/>
	<path fill="#FFFFFF" d="M130.667,69.739c-4.78-1.896-7.943,3.094-12.81,2.492c-0.597,0.348-0.425,0.95-0.767,1.378
		c-0.256,0.258-0.687,0.084-0.94-0.085c-0.256-2.065-0.938-3.96-1.199-5.935c-0.512-0.865-0.256-2.068-0.682-2.924
		c-2.73-7.487,6.661-1.811,8.542-6.194c1.626-3.785-3.163-4.218-4.612-6.885v-1.114c-1.366-1.382-2.821-1.805-3.675-3.621
		c0.6-2.145,0.854-4.468,0.259-6.622c-0.089-0.513-0.43-1.204-1.196-0.945c-1.625,2.239-2.817,4.045-4.355,6.193
		c-1.625-1.204-3.165-2.746-5.039-3.785c-1.284-0.169-2.481-1.463-3.929-0.946c-0.257,0.518,0,0.946,0.256,1.289
		c0.085,3.358,1.79,6.029,4.181,8.437l0.259,1.289c-1.538,3.527-1.107,7.567-1.538,11.353c-3.842,9.809-10.077,19.271-18.533,26.071
		c-4.87,5.502-10.675,10.835-11.448,18.402c-0.252,1.208,0.176,2.666-0.767,3.532c-2.819-1.035-5.636-2.408-7.943-4.215
		c-3.929-2.756-9.565-2.412-12.128-7.401c-1.025-1.975,0.259-3.959,1.197-5.417c2.901-2.756,2.476-7.656,0.938-11.008
		c-0.338-0.09-0.427,0.339-0.679,0.427c-0.258,5.079-4.277,8.602-2.734,14.193c0.341,1.636,1.192,2.666,1.62,4.213
		c-0.598-0.169-1.451-0.169-1.963-0.428c-1.881-0.258-3.76-1.03-5.725-0.776c-3.927,1.806-9.307-0.429-12.467,3.184
		c-0.515,0.09-1.194,0.173-1.025,0.945c1.876,0,3.67,0.518,5.554,0.433c2.984,0.512,4.952-1.98,7.002-3.099h0.508
		c0.858-0.862,2.311-0.344,3.42-0.514c5.38,0.602,9.566,3.179,14.01,5.85v0.339c-1.709,0.781-3.673,1.293-5.382,2.239
		c-1.966,1.468-4.185,3.357-4.785,5.766c-1.366,2.149,0.425,4.045,1.284,5.85c0.082,0.856,0.167,1.891,0.936,2.238
		c2.734-2.929,0.171-6.541,0.599-9.894c0.685-2.587,3.078-3.791,5.551-4.478c4.87-2.06,8.373,1.891,12.295,4.133
		c-0.082,3.955,0.433,7.741-0.423,11.612c-1.197,0.428-2.732,0.686-4.017,0.601c-6.746,0.518-12.041,4.215-18.106,6.283
		c-2.728,0.945-5.975,0.86-8.708,1.891c2.133,0.602,4.353-0.174,6.577-0.259c8.366-1.208,14.775-7.66,23.828-6.541l0.167,0.264
		c-1.023,2.148-2.389,3.959-4.014,5.591c-0.256-0.945-0.341-1.726-1.197-2.243c-0.682-0.338-1.451,0-1.959,0.696
		c-0.256,0.423-0.256,0.94,0,1.289c0.426,0.775,1.108,0.944,1.876,1.203c-0.169,0.771-1.11,1.119-1.622,1.807
		c-2.394,4.043-7.259,2.407-10.08,5.248c-0.428,0.601-1.961,0.949-1.279,1.89c3.245,0.349,6.407-0.518,8.796-2.238
		c3.16-3.521,6.492-6.88,9.652-10.232c0.508,2.75-0.256,5.591-1.878,7.825c-0.769-0.424-1.366-1.03-2.309-1.289
		c-0.851,0.175-1.448,1.035-1.533,1.721c0.336,0.602,0.682,1.289,1.276,1.726c-2.899,2.056-6.571,2.234-9.904,3.176
		c-6.235,0.779-12.297,1.293-18.622,1.382c-2.986-0.179-6.408,0.856-9.222,0c-3.247,0.602-6.748-0.434-9.398,1.373
		c-0.341,0.434,0.082,0.855,0.082,1.288c3.937,2.583,9.316,0.518,13.757,1.293h33.647c2.483-0.084,4.955-0.173,6.92-1.293
		c4.357-2.492,6.751-6.969,8.971-11.353c0.853-1.551,1.453-3.353,1.793-5.163c0.852-2.92,3.499-4.984,6.405-5.248
		c0.426,4.478-0.425,8.949-1.456,13.078c-0.51,2.751-2.302,5.422-1.192,8.347c0.256,1.374,1.707,1.374,2.816,1.548
		c10.334-0.174,20.673-0.603,31.602,0.169c1.963,0.343,3.675,0.945,5.811,0.86c0.168-0.264,0.766-0.343,0.51-0.86
		c-0.254-0.945-0.941-2.149-2.05-2.407c-0.167-0.518-0.938-0.343-1.197-0.691c-5.462-3.095-12.039-1.458-18.446-1.374
		c-3.332,0.345-6.664,0.945-9.48-0.948c-1.279-1.544-0.341-6.447-0.341-6.447c0-1.943,4.7-15.486,5.297-16.606
		c0.167-1.287,0.682-2.492,0.51-3.954c0.682-1.727,0.515-3.955,0.515-5.854c0.341-2.752,1.707-5.328,2.643-7.995
		c0.513-1.293,0.94-2.667,1.456-3.96c0.51-1.63,0.684-3.178,1.707-4.476c2.789,1.772,5.514,1.721,6.85,4.881l1.178,7.167
		c0,0.432,0.341,1.288,0.94,0.771c2.222-1.462,1.54-4.73,1.54-6.965c0.51-2.666-1.366-3.955-2.14-6.278
		c-0.598-0.433-1.58-2.483-1.58-2.483c-0.344-1.894-4.482-3.198-3.539-5.521c0.505-1.975,1.023-3.78,2.901-4.9
		c0.275,0.193,0.393,0.396,0.425,0.606l1.025-0.715l0.106-7.195c2.766-0.009,6.897,0.344,9.713,0.344
		c0.773,0.258,1.371,0.86,2.222,0.945l0.685-0.945l6.919-1.345C135.25,73.11,133.465,69.739,130.667,69.739L130.667,69.739z"/>
	<path fill="#FFFFFF" d="M138.187,72.791c0.212-0.023,0.421-0.066,0.642-0.123L138.187,72.791L138.187,72.791z"/>
	<path fill="#FFFFFF" d="M63.794,96.75c0.087,1.03-0.513,1.632-1.286,1.98c-0.682-0.259-1.19-0.348-1.616-1.035
		c-0.343-0.945,0.508-1.632,1.19-1.975C62.767,95.89,63.622,95.975,63.794,96.75L63.794,96.75z"/>
	<path fill="#FFFFFF" d="M58.245,96.75c0.51,0.518,0.595,1.378,0.341,1.98c-0.597,0.516-1.54,0.945-2.055,0.258
		c-0.513-0.518-1.021-1.12-0.595-1.811C56.531,96.576,57.561,96.063,58.245,96.75L58.245,96.75z"/>
	<path fill="#FFFFFF" d="M177.132,97.695c0.025,0.037,0.051,0.085,0.074,0.122"/>
	<path fill="#FFFFFF" d="M242.215,99.153c0.343,0.956-0.428,1.637-1.109,1.985c-0.854-0.259-1.964-0.433-1.964-1.553
		c0.085-0.687,0.682-1.114,1.277-1.288C241.19,98.043,241.874,98.646,242.215,99.153L242.215,99.153z"/>
	<path fill="#FFFFFF" d="M246.742,98.989c0.254,0.427,0.854,1.12,0.173,1.547c-0.346,0.254-0.603,0.343-0.857,0.687
		c-0.941,0.168-1.79-0.169-2.051-1.031c-0.169-0.945,0.6-1.376,1.284-1.81C245.886,98.213,246.313,98.646,246.742,98.989
		L246.742,98.989z"/>
	<path fill="#FFFFFF" d="M36.801,100.019c-0.336,1.035-1.192,1.462-2.302,1.12c-0.256-0.259-0.515-0.687-0.682-1.12
		c0.08-0.603,0.253-1.203,0.938-1.468C35.78,98.646,36.549,99.068,36.801,100.019L36.801,100.019z"/>
	<path fill="#FFFFFF" d="M65.59,101.481c-0.091,0.687-0.858,1.289-1.451,1.636c-0.858,0.085-1.455-0.606-1.881-1.208
		c0-0.686,0.338-1.547,1.022-1.717C64.222,99.849,65.247,100.536,65.59,101.481L65.59,101.481z"/>
	<path fill="#FFFFFF" d="M60.549,100.879c0.253,0.259,0.51,0.945,0.253,1.377c-0.51,0.429-1.281,1.205-2.132,0.687
		c-0.518-0.433-1.11-0.775-0.943-1.637c0.341-0.343,0.769-0.855,1.284-1.03C59.693,100.108,60.035,100.536,60.549,100.879
		L60.549,100.879z"/>
	<path fill="#FFFFFF" d="M259.81,101.909c0,0.692-0.679,1.377-1.111,1.637c-0.685,0.258-1.451,0.084-1.879-0.429
		c-0.514-0.173-0.341-0.86-0.341-1.293c0.427-0.601,1.025-0.945,1.62-1.119C258.871,100.879,259.38,101.391,259.81,101.909
		L259.81,101.909z"/>
	<path fill="#FFFFFF" d="M265.274,102.686c-0.257,0.775-0.851,1.461-1.625,1.546c-0.509-0.085-1.448-0.253-1.276-1.03
		c0-0.601,0.341-1.203,0.768-1.378C263.995,101.391,265.018,101.824,265.274,102.686L265.274,102.686z"/>
	<path fill="#FFFFFF" d="M46.538,103.889c0.176,1.035-0.167,1.721-1.025,2.064c-0.598,0.343-1.192-0.084-1.618-0.427
		c-0.43-0.433-0.766-1.12-0.43-1.722c0.172-0.775,0.94-0.602,1.451-0.945C45.687,102.943,46.114,103.286,46.538,103.889
		L46.538,103.889z"/>
	<path fill="#FFFFFF" d="M50.726,104.664c0.256,0.687-0.515,0.945-0.684,1.463c-0.424,0.259-1.025,0.513-1.536,0.169
		c-0.6-0.518-1.284-1.288-0.684-2.065C48.506,102.943,50.297,103.63,50.726,104.664L50.726,104.664z"/>
	<path fill="#FFFFFF" d="M254.767,104.231c0.089,0.862-0.681,1.462-1.189,1.985c-0.77,0.169-1.541-0.348-1.712-1.035
		c-0.083-0.691,0.346-1.203,0.942-1.636C253.577,103.461,254.343,103.546,254.767,104.231L254.767,104.231z"/>
	<path fill="#FFFFFF" d="M261.775,105.609c-0.174,0.777-0.089,1.632-0.94,2.149c-0.689,0.175-1.538,0.084-2.05-0.339
		c-0.514-0.433-0.597-1.203-0.339-1.811c0.425-0.686,1.192-1.203,2.048-1.03C261.094,104.924,261.26,105.351,261.775,105.609
		L261.775,105.609z"/>
	<path fill="#FFFFFF" d="M43.298,107.42c0.339,0.682-0.43,0.856-0.685,1.204c-0.6,0.339-1.199,0.085-1.709-0.179
		c-0.602-0.344-0.343-1.204-0.256-1.627C41.414,105.351,42.954,106.386,43.298,107.42L43.298,107.42z"/>
	<path fill="#FFFFFF" d="M256.391,109.048c0.342,0.089,0.175,0.601,0.088,0.779c-2.051,1.026-5.127,1.29-6.918-0.347
		c-1.025-0.856-2.304-1.204-3.416-1.895c0.425-1.115,1.963-1.03,3.075-1.289C251.69,106.64,253.659,108.963,256.391,109.048
		L256.391,109.048z"/>
	<path fill="#FFFFFF" d="M47.396,108.276c0.169,0.687-0.341,0.95-0.515,1.467c-0.344,0.508-1.025,0.339-1.451,0.169
		c-0.767-0.516-1.109-1.467-0.602-2.153C45.773,106.818,46.881,107.335,47.396,108.276L47.396,108.276z"/>
	<path fill="#FFFFFF" d="M54.911,108.794c0.341,0.771-0.172,1.457-0.851,1.89c-0.602,0.349-1.114-0.169-1.625-0.254
		c-0.425-0.603-1.199-1.293-0.425-1.984C52.778,107.157,54.312,107.843,54.911,108.794L54.911,108.794z"/>
	<path fill="#FFFFFF" d="M153.656,112.434c-0.16,1.712-2.998-0.245-2.597,2.041c0.407,1.636,0.731,3.598,1.708,4.824
		c0.809,1.143,0.404,2.938,0.324,4.327c-0.734,1.23-1.947,2.124-3.248,2.778c-2.434-0.244-6.005,1.229-7.143-1.796
		c-0.485-1.308-1.381-2.62-1.381-4.086c0.245-0.16,0.574-0.16,0.816-0.405c0-0.573-0.651-0.902-0.571-1.478
		c2.76-0.488-1.134-2.938,1.218-3.103c1.947,2.041,5.114,1.392,6.818,3.593c0.402,0.329,0.727,0.823,1.216,1.063
		c-0.327-2.041-1.298-4.082-1.622-6.292c-0.247-1.147,0.164-2.205,0.973-2.859C151.631,109.903,152.847,111.531,153.656,112.434
		L153.656,112.434z"/>
	<path fill="#FFFFFF" d="M62.426,111.893c0.259,0.86-0.424,1.374-0.94,1.805c-0.767,0.345-1.193-0.521-1.536-0.944
		c-0.257-0.86,0.343-1.298,0.853-1.721C61.4,111.032,62.082,111.286,62.426,111.893L62.426,111.893z"/>
	<path fill="#FFFFFF" d="M115.125,112.753c1.025,3.354,0.685,6.791-1.03,9.632c-0.082,0.686,0.174,1.805-0.766,1.721
		c-2.305-3.184-0.598-7.656,0.343-11.014C113.844,112.236,114.869,111.893,115.125,112.753L115.125,112.753z"/>
	<path fill="#FFFFFF" d="M188.234,114.381c1.196,2.411,1.278,5.596,0.174,8.004l-0.685,0.686c-0.94-1.975-1.707-3.955-1.966-6.104
		c0.429-1.553,0.941-2.925,1.025-4.563C187.982,112.151,187.893,113.697,188.234,114.381L188.234,114.381z"/>
	<path fill="#FFFFFF" d="M69.089,115.33c-0.513,1.035-1.966,1.289-2.907,1.979c-2.043,1.548-5.038,1.891-7.597,1.463
		c2.217-3.099,5.636-4.909,9.731-4.045C68.49,115.066,68.92,114.902,69.089,115.33L69.089,115.33z"/>
	<path fill="#FFFFFF" d="M33.984,118.43c3.16,2.232,4.016,5.327,5.893,8.431c0.256,0.339,1.11,0.424,0.771,1.12
		c-0.687,0.513-1.369-0.518-2.307-0.348c-3.247-1.468-5.295-5.079-5.21-8.86C33.13,118.43,33.641,118.43,33.984,118.43
		L33.984,118.43z"/>
	<path fill="#FFFFFF" d="M184.905,121.096c0.089,0.855-0.088,1.716-0.772,1.975c-0.938,0.259-1.706-0.259-1.963-1.03
		c-0.257-0.602,0.257-0.944,0.431-1.378C183.28,119.977,184.477,120.319,184.905,121.096L184.905,121.096z"/>
	<path fill="#FFFFFF" d="M220.95,125.652c0-1.632,0.425-3.184,0.593-4.73c0.256-0.514,0.431-1.12,0.346-1.807
		c2.05-2.75,6.232-1.891,9.479-1.636c1.282,0.69,2.905,0.602,4.271,0.95c0.6-0.433,1.451-0.518,2.136-0.433
		c2.734-1.463,0.938-4.643,1.113-7.144l-1.026-2.577c-0.258-0.518-0.515-1.12-0.685-1.721c-0.512-0.603-0.854-1.722-1.363-2.324
		c-1.456-3.78-4.272-5.934-6.665-8.943c-4.357-5.681-11.188-8.86-18.023-11.099c-6.746-2.323-13.581,0.687-19.645,2.84
		c-1.875-0.518-2.815-1.984-3.33-3.616c-0.343-3.27,0.341-6.453,1.622-9.118c0.262-2.15,1.708-3.782,2.308-5.766
		c1.537-4.816,3.157-9.546,3.505-14.794c0.167-3.179-2.222-5.417-4.613-6.791c-1.625-0.433-3.505-0.348-4.698,0.94
		c-1.111,2.323-3.503,3.875-5.551,4.994c-0.174,1.462,1.623,0.513,2.22,1.03c1.876,0.343,4.016-0.259,5.549,0.945
		c0.174,3.442-1.791,6.282-3.585,8.859c-2.904,4.308-5.976,8.69-7.773,13.422l-0.341-0.344l0.415,21.025
		c2.721,4.533,6.123,9.696,11.202,11.409c2.729,2.229,6.146,4.9,9.818,2.925c1.964-0.602,2.138,2.148,3.078,3.263
		c1.025,3.185-1.281,5.423-1.455,8.343l-2.22,4.736c-2.563,4.989-4.867,10.321-8.799,14.535c-1.281,0-2.048,1.373-3.326,1.467
		c-0.688,0.941-2.054,0.254-2.904,0.603c-2.647,1.114-6.409,0.427-8.199,2.925c0.167,0.254,0.423,0.343,0.682,0.428
		c5.206,0.08,11.017,0.429,16.569,0.169c0.685-0.254,1.284-0.86,1.367-1.632c-0.768-1.463,0.256-2.75,0.938-3.874
		c0.428-2.064,1.794-3.349,2.394-5.333c1.792-3.527,3.84-6.97,5.806-10.496l2.647-4.299c0.6-1.463,1.623-3.268,2.647-4.815
		c0.682-0.69,1.025-1.462,1.54-2.322c0.085-0.866-0.341-1.203-0.858-1.806c0.6-0.603,1.54-0.433,2.31-0.603
		c2.138,1.288,4.357,3.353,4.784,5.676l0.77,2.234l0.34,1.035l-0.173,2.84l0.343,2.662c0.429,4.128-0.343,8.347-0.77,12.48
		c-1.45,4.989-7.171,4.472-11.275,5.587c-1.023,0.69-2.986,0.348-2.986,2.068c4.952,1.029,10.764,0.428,16.054,0.343
		c0.856-0.343,1.027-1.118,1.454-1.895c0.172-1.114,1.283-2.069,0.94-3.272c-0.94-1.205-0.083-3.095-0.339-4.727
		c0.17-0.433,0.17-1.034,0-1.632c0.682-2.493,0.51-5.507,1.022-7.92L220.95,125.652L220.95,125.652z"/>
	<path fill="#FFFFFF" d="M262.968,122.3c-2.729,3.865-5.636,8.258-10.417,9.636c-0.34,0-0.686,0.164-0.86-0.26
		c2.909-3.095,4.449-7.919,8.973-9.033C261.345,122.3,262.286,121.951,262.968,122.3L262.968,122.3z"/>
	<path fill="#FFFFFF" d="M29.799,126.513c-0.425,0.348-0.084,1.12-0.854,1.208c-0.682,0.345-1.449-0.088-1.792-0.775
		c-0.343-0.865,0.423-1.721,1.11-1.89C28.945,125.393,29.629,125.652,29.799,126.513L29.799,126.513z"/>
	<path fill="#FFFFFF" d="M54.4,127.721c0.252,0.772-0.599,0.772-1.025,0.945c-3.593,1.289-7.261,0.085-9.824-2.501
		c0-0.339,0-0.688,0.343-0.772C47.396,126.259,51.494,125.563,54.4,127.721L54.4,127.721z"/>
	<path fill="#FFFFFF" d="M34.499,126.598c0.169,0.348,0.256,0.95,0.169,1.289c-0.513,0.779-1.279,0.949-2.135,0.779
		c-0.513-0.264-0.769-0.601-1.113-1.118c0.087-0.865,0.769-1.383,1.451-1.638C33.556,125.995,34.071,126.165,34.499,126.598
		L34.499,126.598z"/>
	<path fill="#FFFFFF" d="M114.525,127.03c0.169,0.771-0.512,1.293-1.022,1.636c-0.771,0.17-1.453-0.173-1.794-0.686
		c-0.254-0.603,0-1.468,0.597-1.642C113.078,126.165,114.27,126.259,114.525,127.03L114.525,127.03z"/>
	<path fill="#FFFFFF" d="M266.215,127.378c0.259,0.855-0.508,1.288-1.106,1.806c-0.516,0.254-1.113,0-1.626-0.264
		c-0.089-0.427-0.597-0.771-0.428-1.372c0.339-0.771,1.112-1.12,1.963-1.035C265.448,126.86,265.79,126.945,266.215,127.378
		L266.215,127.378z"/>
	<path fill="#FFFFFF" d="M271.855,127.03c0.509,0.771,0.082,1.372-0.343,1.975c-0.342,0.603-1.025,0.771-1.541,0.518
		c-0.512-0.518-1.198-0.771-1.28-1.542c0-0.696,0.769-1.204,1.28-1.468C270.831,126.165,271.171,127.03,271.855,127.03
		L271.855,127.03z"/>
	<path fill="#FFFFFF" d="M26.211,129.522c0.089,0.603-0.426,0.95-0.592,1.467c-0.43,0.169-0.858,0.518-1.369,0.344
		c-0.6-0.259-1.028-0.775-1.281-1.378c0.174-0.771,0.682-1.462,1.535-1.722C25.188,128.402,25.959,128.751,26.211,129.522
		L26.211,129.522z"/>
	<path fill="#FFFFFF" d="M206.085,129.522c0.175,0.349,0.085,0.771,0.085,1.12c-0.509,0.69-1.192,1.293-2.051,0.864
		c-0.508-0.518-1.107-1.034-0.851-1.811C203.955,128.751,205.403,128.402,206.085,129.522L206.085,129.522z"/>
	<path fill="#FFFFFF" d="M39.961,130.811c-0.167,0.603-0.426,1.204-1.192,1.289c-0.769,0.094-1.028-0.593-1.451-0.941
		c0-0.779-0.087-1.551,0.682-1.975C39.025,128.836,39.961,129.696,39.961,130.811L39.961,130.811z"/>
	<path fill="#FFFFFF" d="M31.765,130.989c0.256,0.856-0.344,1.458-0.854,1.892c-1.025,0.343-1.881-0.434-2.306-1.205
		c0.084-0.78,0.684-1.721,1.535-1.979C30.911,129.696,31.339,130.558,31.765,130.989L31.765,130.989z"/>
	<path fill="#FFFFFF" d="M211.721,130.811c0.175,0.865-0.079,1.722-0.938,2.07c-1.024,0.343-1.875-0.518-2.306-1.205
		c0.431-0.687,0.515-1.636,1.539-1.805C210.782,129.871,211.299,130.214,211.721,130.811L211.721,130.811z"/>
	<path fill="#FFFFFF" d="M35.78,131.158c0.254,0.603-0.253,0.856-0.432,1.289c-0.423,0-0.68,0.518-1.192,0.349
		c-0.338-0.433-1.025-0.603-1.11-1.204c-0.087-0.865,0.51-1.298,1.11-1.637C35.007,129.871,35.527,130.473,35.78,131.158
		L35.78,131.158z"/>
	<path fill="#FFFFFF" d="M261.517,131.846c-0.257,0.687-0.769,1.035-1.453,1.378c-0.684,0.175-1.109-0.428-1.617-0.691
		c-0.433-0.339-0.258-1.119-0.09-1.543C259.213,129.522,261.517,130.214,261.517,131.846L261.517,131.846z"/>
	<path fill="#FFFFFF" d="M268.007,132.193c-0.257,0.945-1.192,1.373-2.048,1.463c-0.767-0.349-1.625-0.95-1.025-1.98
		c0.341-0.343,0.515-0.687,1.025-0.78C266.983,130.558,267.75,131.333,268.007,132.193L268.007,132.193z"/>
	<path fill="#FFFFFF" d="M227.435,132.796c0.433,1.114-0.591,1.457-1.274,1.975c-0.598-0.085-1.112-0.343-1.63-0.687
		c-0.169-0.945,0.26-1.806,1.202-2.238C226.504,131.846,226.928,132.193,227.435,132.796L227.435,132.796z"/>
	<path fill="#FFFFFF" d="M203.955,133.825c0.423,0.174,0.252,0.776,0.164,1.03c-0.508,0.348-1.189,1.203-1.963,0.696
		c-0.596-0.349-1.022-0.866-0.852-1.642C201.73,132.965,203.525,132.881,203.955,133.825L203.955,133.825z"/>
	<path fill="#FFFFFF" d="M208.732,134.428c0.087,0.682-0.082,1.034-0.682,1.378c-0.6,0.601-1.284-0.085-1.881-0.254
		c-0.167-0.349-0.342-0.866-0.085-1.299c0.257-0.343,0.682-0.597,1.11-0.687C207.795,133.735,208.477,133.735,208.732,134.428
		L208.732,134.428z"/>
	<path fill="#FFFFFF" d="M63.794,134.513c0.513,0.516-0.087,1.114-0.172,1.636c-0.43,0.518-1.363,0.945-2.137,0.428
		c-0.851-0.343-0.767-1.467-0.593-2.148c0.508-0.175,0.508-0.771,1.19-0.771C62.856,133.735,63.281,134.084,63.794,134.513
		L63.794,134.513z"/>
	<path fill="#FFFFFF" d="M236.579,134.855c0.17,0.865-0.685,1.203-1.281,1.378c-1.025,0.343-1.54-0.428-1.966-1.124
		c0-0.508,0.516-0.856,0.682-1.284C235.213,133.308,235.979,134.168,236.579,134.855L236.579,134.855z"/>
	<path fill="#FFFFFF" d="M231.968,134.855c0.339,0.865-0.601,1.293-0.942,1.721c-0.6,0.264-1.366,0.175-1.878-0.343
		c-0.429-0.259-0.429-0.771-0.429-1.289c0.514-0.432,0.766-0.945,1.368-1.119C230.858,133.825,231.628,134.253,231.968,134.855
		L231.968,134.855z"/>
	<path fill="#FFFFFF" d="M270.487,135.891c0.166,1.203-1.366,0.601-1.963,0.949c-3.591,2.144-8.204,0.513-11.619-0.781
		c0.257-1.114,1.541-0.686,2.226-1.114c3.67-2.327,7.428,0.518,11.098,0.683L270.487,135.891L270.487,135.891z"/>
	<path fill="#FFFFFF" d="M36.716,134.855l-0.341,0.606c-3.16,1.891-7.261,3.179-11.014,1.976l-0.343-0.518
		c3.157-2.318,7.342-2.921,11.446-2.318L36.716,134.855L36.716,134.855z"/>
	<path fill="#FFFFFF" d="M245.291,135.462c0,0.687-0.342,1.289-0.859,1.632c-0.848,0.259-1.963,0-2.217-0.945
		c-0.257-0.687,0.427-1.378,1.108-1.636C243.925,134.513,244.949,134.602,245.291,135.462L245.291,135.462z"/>
	<path fill="#FFFFFF" d="M52.01,135.806c-0.344,0.686-0.174,1.373-1.028,1.716c-0.856,0.348-1.881-0.428-2.133-1.115
		c-0.258-0.944,0.426-1.203,0.852-1.636C50.726,134.253,51.494,135.028,52.01,135.806L52.01,135.806z"/>
	<path fill="#FFFFFF" d="M45.945,136.233c0.254,0.606-0.259,0.945-0.433,1.378c-0.425,0.518-1.192,0.428-1.708,0.258
		c-0.592-0.517-1.192-1.118-0.938-2.063c0.512-0.433,0.769-0.696,1.369-0.95C45.004,135.028,45.773,135.373,45.945,136.233
		L45.945,136.233z"/>
	<path fill="#FFFFFF" d="M251.27,138.213c-0.084,0.771-0.684,1.373-1.365,1.552c-0.685,0.085-1.284-0.433-1.625-0.866
		c-0.259-0.516-0.172-1.203,0.341-1.63c0.169-0.26,0.769-0.26,1.11-0.429C250.499,136.92,251.101,137.521,251.27,138.213
		L251.27,138.213z"/>
	<path fill="#FFFFFF" d="M39.62,137.269c0.257,0.69-0.341,0.944-0.428,1.462c-0.254,1.463-1.192,2.408-1.874,3.695
		c-1.627,1.976-3.929,1.976-6.238,2.583l-0.341-0.692c2.476-3.178,5.126-5.676,8.629-7.223L39.62,137.269L39.62,137.269z"/>
	<path fill="#FFFFFF" d="M246.996,139.162c0.173,1.031-0.684,1.205-1.28,1.628c-0.767,0-1.366-0.423-1.709-1.025
		c-0.257-0.95,0.6-1.293,1.109-1.726C245.973,137.869,246.742,138.472,246.996,139.162L246.996,139.162z"/>
	<path fill="#FFFFFF" d="M49.442,139.162c-0.085,0.17,0.091,0.339,0.259,0.424c-0.083,0.954-0.767,1.204-1.282,1.637
		c-0.769,0-1.363-0.259-1.881-0.855c-0.338-0.781,0-1.727,0.858-1.984C48.165,138.298,49.19,138.383,49.442,139.162L49.442,139.162z
		"/>
	<path fill="#FFFFFF" d="M262.714,141.739c0.856-0.085,1.022-1.118,1.965-1.288c0.856-0.169,1.618,0.339,2.05,0.945
		c0.34,1.029-0.432,1.547-1.111,1.98c-0.6,0.423-1.881-0.518-1.793,0.602c0.6,0.423,1.109,1.03,1.193,1.721
		c-0.166,0.339-0.766,0.255-1.022,0.085c-2.479-1.035-5.124-2.756-6.151-5.333c-0.34-0.775-1.96-1.378-1.024-2.068
		C259.297,138.213,261.345,140.193,262.714,141.739L262.714,141.739z"/>
	<path fill="#FFFFFF" d="M270.913,139.073c0.425,0.428,0.258,1.209-0.082,1.633c-0.433,0.864-1.71,0.517-2.481,0.433
		c-0.428-0.433-0.852-0.856-0.685-1.553c0.342-0.513,0.685-0.855,1.282-1.114C269.716,138.298,270.313,138.641,270.913,139.073
		L270.913,139.073z"/>
	<path fill="#FFFFFF" d="M239.911,143.716c0.766,0.948,1.532,2.411,1.876,3.441c-0.169,0.263-0.597,0.169-0.769,0.169
		c-2.898-1.627-6.662-3.432-7.771-6.875c-0.257-0.348-0.941-0.775-0.856-1.378c2.222-0.433,4.357,1.209,5.896,2.408
		C238.887,142.342,239.568,142.774,239.911,143.716L239.911,143.716z"/>
	<path fill="#FFFFFF" d="M44.664,140.451c0.341,0.771-0.343,1.373-0.769,1.721c-0.94,0.17-1.455-0.179-1.965-0.69
		c-0.6-0.941,0.51-1.717,1.199-2.065C43.805,139.332,44.236,140.019,44.664,140.451L44.664,140.451z"/>
	<path fill="#FFFFFF" d="M250.586,142.426c0.082,0.518-0.598,0.866-0.855,1.209c-0.683,0.081-1.366,0.344-1.964-0.258
		c-0.17-0.434-0.598-1.124-0.085-1.553C248.62,140.621,249.988,141.57,250.586,142.426L250.586,142.426z"/>
	<path fill="#FFFFFF" d="M271.855,143.635c0.254,1.029-0.518,1.722-1.202,2.149c-0.851,0.254-1.532-0.348-2.05-0.775
		c-0.424-0.514-0.079-1.03,0-1.632c0.6-0.518,1.368-0.951,2.228-0.603C271.171,143.028,271.513,143.198,271.855,143.635
		L271.855,143.635z"/>
	<path fill="#FFFFFF" d="M212.749,155.505c0,1.029-1.882,0.775-2.649,1.547c-2.648,1.378-5.807,1.378-8.966,1.288v-0.513
		C204.207,155.245,208.65,154.3,212.749,155.505L212.749,155.505z"/>
	<path fill="#FFFFFF" d="M88.139,159.205c-0.091,0.772-0.517,1.203-1.283,1.463c-0.6,0-1.197-0.343-1.456-0.86
		c-0.343-1.035,0.515-1.468,1.112-1.892C87.283,158.001,87.966,158.604,88.139,159.205L88.139,159.205z"/>
	<path fill="#FFFFFF" d="M211.299,160.146c-0.175,0.78-0.432,1.641-1.283,1.985c-0.769,0.169-1.283-0.26-1.883-0.603
		c-0.423-0.348-0.164-0.95-0.252-1.383C208.477,158.604,210.699,158.604,211.299,160.146L211.299,160.146z"/>
	<path fill="#FFFFFF" d="M228.295,160.493c-2.135,1.378-4.528,3.01-7.345,3.01l-4.614-0.085l-0.432-0.348
		c2.821-3.441,7.95-3.441,12.391-3.093V160.493L228.295,160.493z"/>
	<path fill="#FFFFFF" d="M64.732,162.554c0,0.78-0.341,1.382-1.11,1.637c-0.855,0.169-1.455-0.17-1.796-0.772
		c-0.341-0.775,0-1.547,0.682-1.983C63.451,160.832,64.391,161.871,64.732,162.554L64.732,162.554z"/>
	<path fill="#FFFFFF" d="M69.004,163.418c0.256,0.424-0.169,0.688-0.341,1.12c-0.518,0.254-1.197,0.433-1.625,0
		c-0.6-0.348-0.769-0.95-0.51-1.468c0.253-0.517,0.769-0.428,1.025-0.771C68.146,162.554,68.746,162.816,69.004,163.418
		L69.004,163.418z"/>
	<path fill="#FFFFFF" d="M36.293,172.109c-0.858,1.035-2.223-0.264-3.163-0.781c-2.991-1.717-2.901-5.073-5.895-7.05
		c0.341-1.038,1.108,0.081,1.709-0.088c0.51,0.348,1.194,0.69,1.794,0.95C33.641,166.771,34.325,169.522,36.293,172.109
		L36.293,172.109z"/>
	<path fill="#FFFFFF" d="M285.261,138.73c-1.367-2.497-3.673-3.527-6.404-3.527c-2.22,0.17-3.848,1.637-4.786,3.527
		c-0.51,1.891,0.172,3.611,1.625,4.73c0.597,0.255,1.369,0.174,1.709-0.433c0.429-1.119-0.768-1.119-0.939-1.979
		c-0.342-1.199,0.087-2.234,0.939-3.01c0.853-0.86,2.305-0.428,3.327-0.428c1.03,0.687,2.056,1.287,2.563,2.492
		c0.518,1.467,0.518,3.095,0,4.561c-0.937,2.145-3.072,3.866-5.292,4.304c-7.089,1.029-84.898,0.687-84.898,0.687
		c-9.137,0.86-19.558-1.726-27.414,3.099c-3.588,1.717-5.384,5.677-6.32,9.199c-2.306,2.068-4.784,4.477-6.663,6.799l-0.257-0.254
		c0.424-2.068,1.366-3.874,1.792-5.943c1.282-1.722,1.282-4.039,2.225-5.935c3.244-5.244,6.317-10.581,11.356-14.277
		c2.138-2.841,5.895-2.323,9.137-2.323c3.504,1.636,7.603,2.153,11.872,1.721c0.174-0.169,0.259-0.343,0.259-0.601
		c-1.197-1.12-3.162-1.553-4.528-2.667c-3.414-1.632-6.661,0.512-10.247,0.259c-0.172-0.169-0.341-0.259-0.257-0.518
		c3.248-2.407,6.918-4.129,10.593-5.681c2.989-1.637,6.146-2.492,9.307-3.696c1.279,0,2.479-1.115,3.673-0.343l4.526-1.209
		c0.174,0.094,0.343,0.349,0.685,0.264c3.844-1.289,8.713-0.085,13.063-0.17l0.602,0.509l4.101,1.033
		c1.535,0.175,2.22,1.976,3.842,2.069c0.856-1.213-0.939-1.721-1.368-2.496c1.883-0.428,4.016,0.088,5.721,0.86l-0.846,0.94
		c-0.521,0.949,0.254,1.642,1.022,1.984c0.6,0.169,1.024-0.264,1.448-0.433c1.114-0.771-0.085-1.552,0.257-2.238
		c6.321,1.119,12.386,2.671,18.196,5.163c1.62,0.518,3.157,1.721,4.955,1.636c-1.798-1.636-4.273-2.496-6.495-3.441
		c-1.453-0.865-3.501-0.95-4.611-2.154c0.254-0.432,0.856-0.253,1.11-0.597c2.904-0.343,5.382-2.493,7.432-4.821
		c0.167-0.512,1.108-0.337,1.023-1.033c-0.77-0.856-2.051,0.264-3.073,0.179c-3.589,0.687-5.128,4.899-8.712,5.676
		c-4.354-1.03-8.801-2.065-13.155-3.184c-2.135-0.348-4.439-0.518-6.402-1.378l-4.787-0.428h-8.712
		c-0.082-0.169-0.341-0.263-0.256-0.518c3.077-0.771,5.725-2.582,8.801-3.357l22.891-10.496c2.39-2.145,4.523-4.557,6.489-7.05
		c0.082-0.687-0.345-1.378-0.944-1.636c-0.594-0.259-1.275-0.169-1.704,0.343c-1.024,0.775,0,1.721,0,2.671
		c-1.024,1.374-2.651,2.577-3.926,3.353c-0.342-0.089-23.575,10.581-23.575,10.581c-3.418,1.463-6.835,3.1-10.423,3.87l-4.954,0.771
		c-0.341,1.035-1.192,1.636-2.135,1.98c-1.364,0.258-2.479,1.123-3.93,1.123c-11.103,4.298-22.633,8.86-31.427,17.635
		c0.51-1.034,0.769-2.323,0.851-3.61c-0.169-1.299-0.082-2.756-0.938-3.791c-0.199-0.476-0.827-1.862-0.625-2.36l-1.253,0.818
		c-0.771,1.886-1.453,5.333-0.683,7.308c0.255,1.542,1.536,3.353,0.341,4.73c-4.103,4.994-6.409,11.014-9.139,16.688
		c-1.025-0.173-1.537-1.118-1.967-2.063c2.906-3.7,5.212-7.83,6.07-12.561c0.595-0.433,0.167-1.547,0.767-2.064
		c-0.172-1.378,0.765-2.751,0.085-3.874c0.543-1.872-2.494-3.607-0.553-4.817l-1.613,0.777c-3.673,4.819,1.909,12.043-2.275,16.689
		v0.339c-1.197,1.551-1.797,3.104-3.419,4.128c-2.048-0.854-2.817-3.179-4.014-4.899c-1.879-1.806-1.879-5.507-0.767-8.004
		c0.767-2.492-0.513-4.637-0.771-6.88l-0.854-0.509c-2.048,2.658-2.815,6.88-1.195,10.06c0.851,1.551,0.938,3.7,2.22,4.994
		c0.771,2.492,2.304,4.129,3.673,6.358c0.343,0.864-0.51,1.033-0.937,1.466c-0.94-0.602-0.773-1.983-1.625-2.586
		c-2.821-6.02-6.492-10.835-10.928-15.734c-0.179-0.781-0.943-1.463-0.52-2.323c1.625-1.552,1.966-4.562,1.11-6.541
		c-0.167-0.428-0.677-0.945-0.59-1.378l-1.287-1.03c0.174,3.015-1.792,5.676-0.94,8.864v0.17
		c-8.794-6.626-18.521-12.543-28.432-17.184l-0.785,2.182c2.499,0.63,9.148,4.675,9.148,4.675c2.989,1.124,5.721,2.93,8.537,4.562
		c11.616,6.452,19.307,17.118,24.513,28.996c0.087,0.94,0.943,1.976,0.343,2.925c-1.794-2.76-4.354-4.307-6.49-6.545
		c-0.597-4.04-2.988-7.915-6.494-9.547c-1.281-1.891-4.014-2.063-6.146-2.666l-31.091-0.175c-25.281-0.349-48.34,0.777-73.452,0.344
		c-3.501-0.344-7.771-1.547-8.798-5.244c-0.68-1.287-0.68-3.527,0-4.73c0.942-1.637,2.65-2.153,4.354-2.322
		c1.368,0.169,2.307,1.457,2.909,2.411c0,1.114-0.943,2.149-1.369,3.095c0.085,0.344,0.426,1.029,1.027,0.767
		c1.107-0.423,1.961-1.627,2.219-2.747c0.083-0.605,0.339-1.461-0.258-1.89c-0.51-1.806-2.389-3.099-4.013-3.531
		c-2.135-0.175-4.357,0.433-5.808,1.979c-2.048,1.721-1.963,4.815-1.369,7.224c1.369,3.785,5.384,6.367,9.229,6.884l83.104,0.348
		c8.112,0.424,17.249-0.949,25.448,0.688c2.991,0.944,6.153,3.179,6.922,6.537c-0.092,0.168-0.343,0.085-0.6,0.085
		c-6.748-4.384-15.631-6.025-24.258-4.986c-3.414-0.179-6.489,1.12-9.565,1.976c-1.625,0.349-3.16-0.433-4.185-1.373
		c-3.073-2.756-8.455-2.587-12.382-1.557c0,0.263-0.087,0.518,0.085,0.607c4.183-0.345,6.661,3.271,10.418,3.695
		c0.856,0.175,1.538-0.771,2.304-0.085c-3.926,1.891-7.683,4.134-11.871,5.333c-1.282-0.254-1.961-1.457-2.989-2.153
		c-1.625-1.806-4.609-1.026-6.831-1.205c-0.769,0.179-1.451-0.337-1.965,0c0.682,1.384,2.222,2.159,3.672,2.841
		c2.133,0.95,4.611-0.085,6.579,1.208c-0.517,0.603-1.199,0.777-1.796,1.205c-4.016,1.547-7.348,5.159-11.785,4.905
		c-4.695,0.512-9.483-0.866-12.646-4.134c-1.366-3.354-4.865-5.159-8.622-4.984c-0.256,0.164-0.598,0.164-0.515,0.601
		c1.878,1.114,3.33,3.354,5.21,4.642c1.196,1.463,3.503,0,4.61,1.638c1.627,1.118,3.675,2.063,5.557,2.407
		c1.363,0.602,2.901,0.86,4.439,1.203l-0.6,0.349c-7.769,2.577-16.742,2.831-25.451,2.492c-2.563-0.085-5.039-0.856-7.602-0.771
		c0.425,0.518,1.279,0.94,2.048,1.204c-0.68,0.424-1.454,0.597-2.305,0.688c-1.025,0.258-2.22,0.339-3.247,0.86
		c-1.367-0.091-2.563,0.427-3.673,0.86c-1.454,1.542-3.16,3.179-4.868,3.954c0,0.343-0.087,0.86,0.341,0.86
		c1.625-0.686,3.675-0.169,5.295-0.86c2.816-0.258,4.441-3.353,6.666-4.65c2.386-1.885,5.805-1.458,8.709-1.024
		c1.708,0.422-0.169,1.118,0.341,2.237c0.685,0.603,1.282,1.288,2.225,1.025c0.167-0.169,0.336-0.338,0.593-0.423
		c0.515-0.692,0.432-1.468,0.085-2.154c1.201-0.776,2.824,0.084,4.1-0.428c3.247-0.089,6.494-0.775,9.654-0.86
		c0.51-0.085,1.11-0.603,1.623-0.085c-0.257,0.688-1.113,0.771-0.767,1.712c0.167,0.78,1.025,1.123,1.705,1.298
		c0.854-0.344,1.62-0.95,1.284-2.064c-0.171-0.606-0.854-0.691-1.284-0.945c1.794-0.865,3.842-1.124,5.639-1.984
		c1.279-0.254,2.476-0.687,3.585-1.204c1.112-0.085,2.053-1.12,3.075-0.687c-0.43,1.458-1.022,2.84-1.796,4.129
		c-1.364,4.562-2.389,10.581,0,14.973c0.259,0.085,0.344-0.089,0.518-0.179c-1.797-4.552-0.771-9.809,0.766-14.103
		c1.195-7.313,8.711-9.467,14.097-12.223l0.251,0.349c-1.451,3.791-3.586,7.401-3.245,11.955c0.171,0.779-0.341,1.551,0,2.068
		c1.453-0.771,2.394-2.498,3.16-3.96c0.6-3.865-1.623-8.686,2.309-11.526c7.002-2.75,13.581-6.362,21.69-6.447
		c0.259,0.255,0.858-0.179,0.94,0.339c-1.707,1.896-4.185,3.695-4.954,6.02c-2.732,3.79-2.648,10.242-1.451,14.889
		c0.769,2.661-1.538,4.129-2.646,6.192c-0.533,0.729-0.684,1.98-1.175,2.826l1.684,0.184c1.456-1.547,2.821-3.442,2.906-5.685
		c0.171,0.87,0.938,1.557,1.623,1.726c0.597-0.946-0.515-1.632-0.6-2.582c1.366-0.771,1.967,0.95,3.075,1.293
		c1.796,0.434,3.33,1.205,5.21,1.205l0.6-0.599c-1.883-2.929-5.636-3.441-8.885-3.616c-1.705-2.844-1.705-6.362-1.538-9.805
		c0.346-1.811,0.687-3.701,1.707-5.342c0.431-1.199,1.625-2.314,2.396-3.263c1.536-1.463,3.499-2.493,5.38-2.926h0.256
		c0,0.17,0.084,0.264,0.084,0.264c-2.306,1.8-2.563,4.298-3.929,6.526c-1.451,2.159-2.135,5.079-0.766,7.486
		c0.51,1.12,0.256,2.841,1.449,3.612c1.107-1.542,1.201-3.522,1.796-5.244c-0.259-2.841-1.963-5.506-0.345-8.262
		c0.858-2.149,2.652-3.005,4.612-3.781c4.701-0.432,8.801,1.976,12.897,3.781c0.861,0.606,2.307,1.119,2.48,2.322
		c-0.089,2.333-1.366,4.655-3.162,5.766c-2.307,1.378-5.639,1.548-7.773-0.084c-1.279-1.288-1.792-3.527-1.364-5.248
		c0.94-1.03,2.22-1.891,3.758-1.374c0.855,0.424,1.622,1.289,2.732,0.771c0.425-0.254,0.598-0.945,0.341-1.373
		c-0.938-0.517-1.279-1.807-2.561-1.985c-1.622-0.252-3.587-0.169-4.697,0.951c-1.794,1.552-2.479,3.875-1.964,6.023
		c0.595,2.752,2.646,4.727,5.291,5.507c3.931,0.94,8.034-0.263,10.508-3.615c1.025-1.12,1.284-2.324,1.881-3.701
		c4.099,2.502,7.172,6.884,8.797,11.352c0,1.468,0.427,3.01,0.084,4.308l2.986,0.255c-0.251-0.688,0-1.459,0.259-2.062
		c1.114-5.676,4.612-10.411,8.796-14.106c1.455-0.862,1.111,1.114,1.455,1.715c1.279,3.27,4.272,5.593,7.43,6.543
		c3.587,0.601,7.003-0.254,9.225-3.01c1.107-2.07,2.48-5.079,0.598-7.229c-1.197-1.462-2.819-2.234-4.695-2.234
		c-2.223,0-3.586,1.544-4.695,3.18c0,0.687-0.09,1.457,0.507,1.806c0.341,0,1.025,0.09,1.284-0.428
		c0.172-1.293,1.279-1.896,2.305-2.582c0.942-0.513,1.965,0,2.731,0.517c0.94,0.772,1.11,2.065,1.197,3.354
		c-0.172,1.641-1.279,3.354-2.819,4.05c-2.477,1.288-6.063,0.686-8.199-0.781c-1.022-1.119-1.622-2.407-2.392-3.785
		c-0.169-1.374-0.684-2.573,0-3.955c3.758-2.239,7.689-3.87,12.213-4.299c1.792,0.339,3.332,1.543,4.529,2.831
		c3.929,4.049-0.856,9.811,1.876,14.287c1.024-0.179,1.024-1.548,1.456-2.408c1.283-3.1-0.344-6.456-1.113-9.471
		c-1.027-1.891-1.62-3.518-3.244-5.07c0.428-0.169,0.597-0.169,1.025-0.169c1.791,1.204,3.757,2.577,5.208,4.469
		c2.479,4.043,3.762,8.858,3.329,14.112c-0.68,2.58-3.417,3.785-5.549,4.727c-0.854,0.694-1.879,1.725-2.305,2.755
		c1.025,0.602,2.474,0,3.499-0.429c1.622-0.602,2.563-2.675,3.675-3.616c0.17,0.085,0.087,0.349,0.17,0.518
		c0.085,0.95-0.426,2.238,0.426,2.497c0.427-1.203,0.517-2.93,0.769-4.387c1.111,1.203,1.278,2.75,1.625,4.298
		c0.771,1.551,2.052,3.612,4.098,3.875c0.51-0.771-0.085-1.553-0.254-2.239c-0.259-2.153-2.051-3.271-3.247-4.824
		c-2.99-4.125-1.625-10.572-3.929-15.218c-0.852-2.497-2.647-4.309-4.614-6.368l0.342-0.343c4.186-0.09,7.688,1.288,11.53,2.065
		c4.698,2.322,11.533,1.806,13.756,7.919c0.936,3.432,2.475,6.616,4.864,9.282l0.261-0.169c0.508-0.864,0.508-2.323,0-3.18
		c-0.517-4.307-4.274-5.333-6.239-8.953l0.258-0.339c2.048,0.603,4.183,1.109,6.235,1.976c6.834,1.89,11.61,8.605,12.47,15.574
		c0,5.498-1.028,10.06-3.161,14.705c-0.255,0.692-1.453,1.463-0.686,2.064c0.94-0.687,1.112-1.805,1.63-2.58
		c2.816-4.727,4.262-11.265,2.816-17.288c-0.088-1.119-1.366-1.979-0.771-3.099c0.43,0.517,0.942,0.602,1.453,0.776
		c0.515-0.345,1.284-0.345,1.624-0.951c0.083-0.512,0.424-1.114,0-1.547c-0.517-0.771-1.624-0.771-2.476-0.597
		c-0.43,0.512-0.94,1.199-1.029,1.886c-0.852-1.463-1.71-3.349-3.076-4.552l0.175-0.264c3.844,1.288,7.344,3.188,11.274,4.213
		c0.851,0.518,1.793,0.951,2.99,0.951c3.33,1.287,7.003,1.805,10.504,2.665c2.563-0.258,4.694,0.945,7.26,0.345v-0.17l-0.083,0.085
		c-0.941-1.204-2.989-0.085-4.104-0.946c-5.893-0.606-11.528-2.157-16.824-4.213c0.085-0.259,0.426-0.174,0.685-0.174
		c0.851-0.433,1.448-1.204,1.365-2.154c-0.427-0.602-1.108-0.945-1.965-0.945c-0.515,0.254-1.196,0.856-1.284,1.463
		c0.088,0.687,0.685,1.468,1.284,1.637c-0.17,0.174-0.515,0.085-0.767,0.085c-2.647-1.21-5.212-2.328-7.776-3.527
		c-0.939-0.175-1.706-0.95-2.649-1.12c-1.959-0.939-3.929-1.896-5.895-2.661c-5.462-2.85-11.526-4.392-17.331-6.461
		c-1.282-0.344-2.481-0.687-3.678-1.025c-2.133-0.603-4.266-1.119-6.405-1.727c-7.259-1.805-16.997-1.975-23.317,1.98
		c-1.023-0.343-1.623,1.288-2.133,0.258c1.792-4.73,7.004-6.277,11.699-6.447c34.252-0.348,66.366-0.605,100.103-1.123
		c3.931,0,7.773-1.373,9.821-4.9C286.116,144.58,286.37,141.049,285.261,138.73L285.261,138.73z M149.461,170.468
		c-0.343,1.039-1.025,1.896-0.943,3.02l-0.341,0.164c0.259-1.288-1.022-2.06-0.682-3.438c-0.685-1.03-0.685-2.317-1.281-3.442
		c-0.767-1.377,0.679-1.979,1.281-2.93c1.196,0.518,1.622,1.642,2.474,2.671C150.486,167.976,149.375,169.096,149.461,170.468
		L149.461,170.468z"/>
	<path fill="#FFFFFF" d="M242.128,165.056c0,0.254,0.514,0.339,0.341,0.771c-2.985,2.671-7.171,3.442-11.443,3.612
		c-0.343,0.084-0.685,0.348-1.107,0.258c-0.259-0.174-0.341-0.428-0.171-0.601C232.821,165.741,237.518,164.021,242.128,165.056
		L242.128,165.056z"/>
	<path fill="#FFFFFF" d="M228.378,166.429c0.341,1.204-0.423,1.89-1.365,2.322c-0.941-0.085-1.45-0.686-1.88-1.378
		c-0.254-0.682,0.342-1.029,0.6-1.462C226.413,165.226,228.034,165.226,228.378,166.429L228.378,166.429z"/>
	<path fill="#FFFFFF" d="M66.014,166.603c0.169,0.602,0.085,1.373-0.423,1.81c-0.344,0.424-1.115,0.509-1.542,0.424
		c-0.597-0.085-0.938-0.771-1.107-1.288c0-0.776,0.426-1.204,1.107-1.637C64.732,165.911,65.499,165.826,66.014,166.603
		L66.014,166.603z"/>
	<path fill="#FFFFFF" d="M50.726,172.188v0.607c-2.053,0.433-4.012-0.085-5.554-1.289c-1.192-1.721-2.559-3.441-4.524-4.303
		c0-0.258-0.515-0.602,0-0.775C44.915,166.429,47.483,169.871,50.726,172.188L50.726,172.188z"/>
	<path fill="#FFFFFF" d="M255.109,166.513c-1.966,2.926-3.673,6.537-7.171,7.835c-0.6,0-1.11,0.856-1.626,0.254
		c1.369-3.273,4.273-6.79,7.604-8.173C254.259,166.429,254.767,166.344,255.109,166.513L255.109,166.513z"/>
	<path fill="#FFFFFF" d="M70.97,167.548c0.082,0.949-0.6,1.118-1.199,1.636c-0.682,0.085-1.025-0.433-1.454-0.95
		c-0.338-0.86,0.428-1.203,0.854-1.631C69.855,166.429,70.629,166.946,70.97,167.548L70.97,167.548z"/>
	<path fill="#FFFFFF" d="M265.874,168.065c-0.766,1.118-0.426,2.756-1.195,3.959c-1.711,1.975-3.162,4.213-5.894,4.637
		c-0.429-0.855,0.595-1.721,1.024-2.492c1.196-2.577,2.904-5.503,5.639-6.621L265.874,168.065L265.874,168.065z"/>
	<path fill="#FFFFFF" d="M24.25,168.836c0.254,0.603,0.51,1.204,0,1.89c-0.515,0.434-1.281,0.603-1.966,0.345
		c-0.767-0.428-1.025-1.374-0.684-2.056C22.115,168.233,23.65,167.812,24.25,168.836L24.25,168.836z"/>
	<path fill="#FFFFFF" d="M19.382,169.871c0.083,0.433,0.339,0.771,0.252,1.199c-0.252,0.437-0.677,0.954-1.192,1.039
		c-0.942,0.169-1.535-0.349-1.963-1.124c-0.089-0.771,0.169-1.463,0.851-1.802C18.097,168.836,18.957,169.269,19.382,169.871
		L19.382,169.871z"/>
	<path fill="#FFFFFF" d="M29.456,170.389c0.174,0.682,0.343,1.89-0.682,2.06c-1.197,0.521-1.879-0.339-2.563-1.03
		c0-0.775,0.428-1.378,1.025-1.722C28.09,169.611,28.863,169.696,29.456,170.389L29.456,170.389z"/>
	<path fill="#FFFFFF" d="M43.464,171.507c-0.084,0.603,0.087,1.463-0.597,1.638c-0.428,0.427-1.197,0.254-1.623,0.169
		c-0.168-0.518-1.112-0.95-0.597-1.553c0.339-0.433,0.682-0.69,1.196-0.939C42.354,171.07,43.128,170.821,43.464,171.507
		L43.464,171.507z"/>
	<path fill="#FFFFFF" d="M274.07,172.109c-0.253,0.602-0.595,1.378-1.279,1.378c-0.769-0.089-1.538-0.174-1.96-0.955
		c-0.344-0.94,0.422-1.462,1.106-1.711C272.791,170.821,273.902,171.159,274.07,172.109L274.07,172.109z"/>
	<path fill="#FFFFFF" d="M258.446,172.532c0.082,0.696-0.685,1.213-1.029,1.467c-1.193,0.518-2.218-0.348-2.65-1.288
		c0.174-0.78,0.775-1.293,1.457-1.552C257.332,171.07,257.932,171.677,258.446,172.532L258.446,172.532z"/>
	<path fill="#FFFFFF" d="M269.032,172.363c0,0.606-0.341,1.208-0.768,1.467c-0.685,0.254-1.536,0.169-2.05-0.343
		c-0.767-0.691-0.171-1.299,0.344-1.811C267.325,171.243,268.773,171.328,269.032,172.363L269.032,172.363z"/>
	<path fill="#FFFFFF" d="M22.025,173.83c0.174,0.94-0.167,1.801-1.023,2.149c-0.769,0-1.62-0.437-1.878-1.209
		c-0.084-0.771,0.167-1.542,0.856-1.801C20.831,172.711,21.517,173.229,22.025,173.83L22.025,173.83z"/>
	<path fill="#FFFFFF" d="M254.177,174.771c0.251,0.951-0.26,1.812-1.202,2.238c-0.682,0.175-1.109-0.169-1.623-0.602
		c-0.34-0.428-0.766-1.373-0.082-1.806C251.951,173.313,253.659,173.83,254.177,174.771L254.177,174.771z"/>
	<path fill="#FFFFFF" d="M67.979,175.722c0.338,0.939-0.682,1.118-0.94,1.636c-0.341,0.169-1.025,0.254-1.282-0.094
		c-0.425-0.518-0.938-1.026-0.684-1.806c0.426-0.339,0.6-0.688,1.11-0.856C67.124,174.348,67.466,175.204,67.979,175.722
		L67.979,175.722z"/>
	<path fill="#FFFFFF" d="M272.534,176.322c0.17,0.603-0.337,0.861-0.425,1.289c-0.515,0.433-1.365,0.518-1.963,0.348
		c-0.773-0.433-0.773-1.119-0.773-1.898c0.515-0.339,0.599-0.772,1.198-0.941C271.338,175.119,272.279,175.458,272.534,176.322
		L272.534,176.322z"/>
	<path fill="#FFFFFF" d="M267.24,176.582c0.34,1.029-0.6,1.547-1.281,1.805c-0.342,0.081-0.851-0.173-0.941,0.345
		c2.223,1.118,3.586,2.924,5.296,4.556v0.692c-3.073-0.091-6.238-0.862-8.455-3.265c-0.599-0.441-1.62-0.441-2.303-1.039
		c1.107-1.114,3.158-0.691,4.696-0.771c1.107-1.204-1.284-2.064,0.172-3.099c0.51-0.084,0.851-0.602,1.535-0.433
		C266.559,175.631,266.898,176.061,267.24,176.582L267.24,176.582z"/>
	<path fill="#FFFFFF" d="M232.307,176.661c0.17,0.433-0.339,0.95-0.424,1.383c-0.516,0.518-1.283,0.603-1.881,0.343
		c-0.425-0.602-1.111-1.123-0.854-1.979C229.833,175.119,232.049,175.373,232.307,176.661L232.307,176.661z"/>
	<path fill="#FFFFFF" d="M41.33,179.676c-0.253,0.776-0.6,1.284-1.453,1.378c-0.685-0.094-1.277-0.339-1.536-1.035
		c-0.089-0.597,0.343-0.944,0.428-1.372C39.709,177.869,41.414,178.387,41.33,179.676L41.33,179.676z"/>
	<path fill="#FFFFFF" d="M48.249,178.562c0,1.194-1.283,1.891-1.711,3.094c-1.281,2.84-3.583,5.417-6.828,5.681
		c-0.341-0.779,1.11-1.727,1.453-2.492c1.364-2.93,4.094-4.477,6.576-6.282H48.249L48.249,178.562z"/>
	<path fill="#FFFFFF" d="M230.259,179.756c0.082,0.959-0.774,1.641-1.458,1.983c-0.767,0.264-1.366-0.343-1.788-0.686
		c-0.684-0.687-0.257-1.378,0.083-2.069C228.121,177.959,229.577,178.815,230.259,179.756L230.259,179.756z"/>
	<path fill="#FFFFFF" d="M235.556,180.367c-0.091,0.941-0.687,1.636-1.542,1.89c-0.166-0.254-0.597-0.084-0.851-0.169
		c-0.597-0.349-1.114-0.864-1.114-1.552c0.428-0.433,0.601-1.114,1.199-1.204C234.014,179.247,235.298,179.332,235.556,180.367
		L235.556,180.367z"/>
	<path fill="#FFFFFF" d="M61.485,180.273c0.086,0.95-0.593,1.466-1.277,1.814c-0.771,0.085-1.281-0.433-1.622-1.034
		c-0.171-0.78,0.595-1.298,1.023-1.722C60.634,178.984,60.892,179.756,61.485,180.273L61.485,180.273z"/>
	<path fill="#FFFFFF" d="M67.382,180.621c-0.258,0.775-0.769,1.293-1.625,1.467c-0.597-0.174-1.281-0.349-1.535-1.034
		c-0.082-0.861,0.598-1.298,1.192-1.722C66.27,179.332,67.21,179.676,67.382,180.621L67.382,180.621z"/>
	<path fill="#FFFFFF" d="M253.917,186.645c0.426,0.343,1.192,0.776,1.023,1.373c-1.363,0.607-2.474-0.945-3.755-1.198
		c-2.051-2.07-3.589-4.303-4.443-6.885c0.77-0.772,1.622,0.169,2.306,0.433C251.012,182.003,252.893,184.147,253.917,186.645
		L253.917,186.645z"/>
	<path fill="#FFFFFF" d="M257.075,180.621c0.257,0.603,0.172,1.293-0.17,1.896c-0.515,0.86-1.624,0.686-2.389,0.517
		c-0.431-0.517-1.199-1.203-0.683-1.979c0.252-0.687,1.021-0.861,1.621-1.119C256.048,179.85,256.479,180.367,257.075,180.621
		L257.075,180.621z"/>
	<path fill="#FFFFFF" d="M75.238,182.859c0.087,0.687,0.258,1.721-0.595,2.149c-0.772,0.174-1.794-0.081-2.05-1.029
		c-0.426-1.035,0.508-1.205,1.025-1.723C74.299,182.088,74.723,182.427,75.238,182.859L75.238,182.859z"/>
	<path fill="#FFFFFF" d="M235.298,188.45c1.196,1.722,2.048,3.87,2.22,6.109c-0.26,0.602,0.428,1.203-0.087,1.633h-0.342
		c-3.841-2.752-4.697-6.628-6.146-10.492c-0.344-0.17-0.433-0.518-0.344-0.856c0.851-0.78,1.449,0.766,2.307,1.025L235.298,188.45
		L235.298,188.45z"/>
	<path fill="#FFFFFF" d="M86.34,185.53c-0.084,0.079,0,0.17,0.084,0.17c-3.414,2.407-8.196,3.864-12.125,1.547
		c-0.084-0.26,0.085-0.69,0.424-0.775c2.482-0.771,4.872-1.977,7.521-1.628L86.34,185.53L86.34,185.53z"/>
	<path fill="#FFFFFF" d="M66.865,185.954c-2.896,1.806-5.547,5.333-9.137,6.198c-0.682,0.253-1.107,1.203-1.963,0.686
		c1.54-4.646,6.579-7.138,11.1-7.571V185.954L66.865,185.954z"/>
	<path fill="#FFFFFF" d="M230.259,189.824c0.252,0.696,0,1.642-0.682,1.811c-0.43,0.428-1.282,0.428-1.622,0
		c-0.77-0.348-0.77-1.114-0.77-1.722c0.249-0.602,0.849-0.686,1.277-0.949C229.232,189.143,229.833,189.143,230.259,189.824
		L230.259,189.824z"/>
	<path fill="#FFFFFF" d="M223.173,190.261c-0.518,1.205-1.967,1.892-3.079,2.229c-2.901,1.034-5.549-0.338-8.113-1.024
		c0.085-0.692,0.939-0.434,1.368-0.866c2.814-0.597,5.718-1.203,8.707-0.428C222.313,190.003,222.913,189.913,223.173,190.261
		L223.173,190.261z"/>
	<path fill="#FFFFFF" d="M66.865,192.753c-0.251,0.339-0.336,1.12-1.025,1.374c-0.593,0.258-1.19,0-1.7-0.344
		c-0.171-0.513-0.773-0.945-0.346-1.552c0.174-0.597,0.856-0.766,1.366-0.944C66.014,191.375,66.698,191.893,66.865,192.753
		L66.865,192.753z"/>
	<path fill="#FFFFFF" d="M71.908,193.524c-0.256,0.518-0.513,1.294-1.197,1.637c-0.685,0.175-1.195-0.174-1.707-0.602
		c-0.259-0.518-0.515-1.119-0.259-1.722c0.174-0.433,0.771-0.518,1.199-0.775C70.796,191.973,71.567,192.838,71.908,193.524
		L71.908,193.524z"/>
	<path fill="#FFFFFF" d="M228.634,194.385c0.085,0.691-0.256,1.115-0.6,1.642c-0.422,0.603-1.278,0.682-1.874,0.339
		c-0.598-0.085-0.771-0.775-1.027-1.204c-0.51-0.686,0.342-1.119,0.6-1.721C226.671,192.664,228.209,193.092,228.634,194.385
		L228.634,194.385z"/>
	<path fill="#FFFFFF" d="M232.392,194.216c0.085,0.429,0.343,0.86,0.175,1.199c-0.518,0.433-0.859,1.553-1.884,1.12
		c-0.508,0.173-0.765-0.509-1.023-0.688c-0.341-0.86-0.082-2.153,1.023-2.323C231.45,193.271,231.968,193.958,232.392,194.216
		L232.392,194.216z"/>
	<path fill="#FFFFFF" d="M68.835,196.708c0.169,0.945-0.171,1.802-0.855,2.323c-0.94,0.169-2.14,0.169-2.48-0.945
		c-0.085-0.855,0-1.979,1.03-2.496C67.382,195.5,68.405,195.679,68.835,196.708L68.835,196.708z"/>
	<path fill="#FFFFFF" d="M73.7,196.365c-0.169,2.407-0.682,5.333-3.07,6.715c-1.369,0.254-2.737,1.543-4.101,0.683v-0.429
		C68.317,200.748,71.567,198.772,73.7,196.365L73.7,196.365z"/>
	<path fill="#FFFFFF" d="M215.227,198.34c0.337,0.518-0.256,0.95-0.515,1.378c-0.508,0.603-1.45,0.345-2.046,0.09
		c-0.601-0.259-0.686-1.119-0.428-1.722c0.167-0.518,0.682-0.771,1.11-0.949C214.116,197.053,214.8,197.748,215.227,198.34
		L215.227,198.34z"/>
	<path fill="#FFFFFF" d="M82.244,202.301c1.19,1.975,0.51,4.646,1.19,6.799c-1.448,0.169-2.047-1.467-2.986-2.323
		c-1.876-2.586-1.625-6.028-2.476-9.028c0.168-0.265,0.425-0.265,0.6-0.18c1.278,0.861,2.217,2.494,3.245,3.612
		C81.645,201.783,82.327,201.783,82.244,202.301L82.244,202.301z"/>
	<path fill="#FFFFFF" d="M219.494,199.031c0,0.687-0.769,0.861-1.191,1.289c-0.602-0.081-1.11-0.343-1.625-0.771
		c-0.258-0.86,0.426-1.119,0.851-1.548C218.385,197.653,219.24,198.086,219.494,199.031L219.494,199.031z"/>
	<path fill="#FFFFFF" d="M229.659,206.692c0,0.254-0.082,0.771-0.512,0.602h-0.347c-2.472-2.238-4.946-4.73-4.606-8.178l0.511-0.085
		C227.013,201.011,229.577,203.16,229.659,206.692L229.659,206.692z"/>
	<path fill="#FFFFFF" d="M223.255,203.933c0.084,0.69-0.342,1.208-0.771,1.641c-0.94,0.253-2.39,0.168-2.561-1.119
		c-0.083-0.866,0.853-1.294,1.283-1.721C222.229,202.479,222.913,203.16,223.255,203.933L223.255,203.933z"/>
	<path fill="#FFFFFF" d="M217.619,205.741c-1.199,3.18-4.445,4.817-6.665,7.225c-0.427-0.254-0.255-0.945-0.172-1.289
		c0.859-3.269,3.422-6.451,6.577-7.744C218.726,204.105,217.359,205.056,217.619,205.741L217.619,205.741z"/>
	<path fill="#FFFFFF" d="M224.023,208.318c0,0.781-0.769,1.12-1.197,1.553c-0.685-0.085-1.366-0.264-1.876-0.95
		c-0.087-0.855,0.593-1.114,1.105-1.542C222.913,207.2,223.68,207.633,224.023,208.318L224.023,208.318z"/>
	<path fill="#FFFFFF" d="M160.47,52.146c1.169,0,2.111,0.955,2.111,2.125c0,1.18-0.942,2.126-2.111,2.126h-25.331
		c-1.166,0-2.108-0.946-2.108-2.126c0-1.171,0.942-2.125,2.108-2.125H160.47L160.47,52.146z M142.56,55.824c2.476,0,0.136-3-1.197-3
		h-2.474c-2.471,0-0.129,3,1.194,3H142.56L142.56,55.824z M152.937,55.824c2.479,0,0.136-3-1.194-3h-2.477c-2.473,0-0.131,3,1.199,3
		H152.937L152.937,55.824z M160.585,52.823h-0.942c-2.477,0-0.374,3,0.956,3C162.25,55.824,162.358,52.823,160.585,52.823
		L160.585,52.823z"/>
	<path fill="#FFFFFF" d="M158.248,81.204l4.842,1.857l4.756-1.857l-1.884,7.124l3.77-0.78l-1.286,4.316l1.286,4.148l-3.341-0.912
		l1.455,7.683l-4.756-1.853l-4.842,1.853l1.968-7.683l-3.854,1.081l1.029-4.317l-1.029-4.143l3.687,0.606L158.248,81.204
		L158.248,81.204z M165.392,94.056c1.086,0,1.183-1.5,1.183-2.793c0-2.936-2.326,0-3.514-2.766
		c-0.872,2.333-3.258,0.179-3.258,2.682c0,1.721-0.01,2.877,1.702,2.877H165.392L165.392,94.056z M160.646,91.413
		c0,1.12,1.5,0.372,2.617,0.372c1.111,0,2.612,0.748,2.612-0.372c0-1.59-1.501-1.034-2.612-1.034
		C162.146,90.378,160.646,89.823,160.646,91.413L160.646,91.413z"/>
	<polygon fill="#FFFFFF" points="146.919,91.685 146.919,90.782 146.11,90.622 146.748,89.964 146.353,89.24 147.181,89.325 
		147.684,88.441 148.177,89.316 149.021,89.24 148.622,89.964 149.261,90.622 148.453,90.782 148.453,91.685 147.684,91.112 
		146.919,91.685 	"/>
	<polygon fill="#FFFFFF" points="143.164,96.52 143.164,95.617 142.355,95.461 142.993,94.798 142.6,94.074 143.425,94.159 
		143.931,93.28 144.422,94.149 145.267,94.074 144.869,94.798 145.506,95.461 144.695,95.617 144.695,96.52 143.931,95.946 
		143.164,96.52 	"/>
	<polygon fill="#FFFFFF" points="149.539,95.903 149.539,94.995 148.728,94.85 149.362,94.187 148.972,93.453 149.802,93.547 
		150.306,92.668 150.794,93.534 151.641,93.453 151.248,94.187 151.879,94.85 151.072,94.995 151.072,95.903 150.306,95.334 
		149.539,95.903 	"/>
	<polygon fill="#FFFFFF" points="150.289,99.52 150.289,99.007 149.83,98.918 150.19,98.55 149.967,98.132 150.439,98.184 
		150.724,97.686 151.001,98.175 151.474,98.132 151.253,98.55 151.61,98.918 151.154,99.007 151.154,99.52 150.724,99.191 
		150.289,99.52 	"/>
	<polygon fill="#FFFFFF" points="144.371,103.649 144.371,102.102 142.981,101.844 144.069,100.705 143.397,99.464 144.822,99.615 
		145.685,98.099 146.527,99.591 147.971,99.464 147.295,100.705 148.38,101.844 146.995,102.102 146.995,103.649 145.685,102.671 
		144.371,103.649 	"/>
	<polygon fill="#FFFFFF" points="147.388,22.505 150.392,29.902 158.011,27.664 154.146,34.643 160.637,39.242 152.807,40.549 
		153.279,48.535 147.388,43.183 141.486,48.535 141.963,40.549 134.133,39.242 140.627,34.643 136.762,27.66 144.378,29.902 
		147.388,22.505 	"/>
	<path fill="#FFFFFF" d="M119.828,188.398c-0.902,0.339-1.258,0.593-1.037,1.529l1.077,4.527c0.2,0.848,0.261,2.174-0.301,2.973
		c-0.666,0.979-2.079,1.6-3.094,1.844c-0.743,0.179-2.359,0.479-3.649-0.071c-0.858-0.361-1.411-0.757-1.78-2.29l-1.124-4.749
		c-0.282-1.194-0.727-1.119-1.693-0.974l-0.085-0.353l5.726-1.373l0.084,0.348c-1.107,0.315-1.629,0.457-1.335,1.702l1.124,4.75
		c0.189,0.809,0.654,2.774,3.097,2.19c2.979-0.718,2.497-2.896,2.285-3.813l-1.025-4.331c-0.205-0.87-0.524-1.308-1.999-1.007
		l-0.082-0.361l3.729-0.899L119.828,188.398L119.828,188.398z"/>
	<path fill="#FFFFFF" d="M128.313,189.349c-0.52-0.932-1.904-2.341-3.91-1.89c-0.884,0.197-1.726,0.832-1.523,1.758
		c0.171,0.768,0.564,1.007,2.125,1.289l2.728,0.489c0.63,0.113,2.106,0.649,2.45,2.205c0.275,1.255-0.433,3.226-3.563,3.922
		c-1.616,0.361-2.493,0.047-3.017,0.164c-0.36,0.081-0.386,0.357-0.402,0.603l-0.491,0.104l-0.776-3.517l0.489-0.114
		c0.659,1.364,2.003,2.756,4.162,2.276c2.043-0.451,1.813-1.89,1.77-2.078c-0.204-0.95-1.084-1.11-2.285-1.308l-1.239-0.206
		c-3.166-0.518-3.438-1.746-3.579-2.403c-0.195-0.87-0.094-2.93,3.134-3.645c1.364-0.306,2.267-0.02,2.761-0.123
		c0.39-0.094,0.428-0.318,0.451-0.611l0.515-0.112l0.683,3.095L128.313,189.349L128.313,189.349z"/>
	<path fill="#FFFFFF" d="M139.586,194.982l-6.193,0.593l-0.031-0.357c1.256-0.216,1.67-0.278,1.555-1.505l-0.729-7.665
		c-1.207,0.17-2.987,0.413-3.116,2.779l-0.506,0.047l-0.223-2.93l10.411-1.002l0.308,2.92l-0.501,0.058
		c-0.568-2.305-2.358-2.205-3.562-2.145l0.727,7.674c0.12,1.232,0.536,1.224,1.827,1.166L139.586,194.982L139.586,194.982z"/>
	<path fill="#FFFFFF" d="M154.072,194.982l-3.572-0.065l-3.511-4.65l-0.472-0.006l-0.059,2.87c-0.023,1.166,0.357,1.212,1.512,1.372
		l-0.012,0.357l-5.881-0.112l0.002-0.367c1.188-0.09,1.538-0.127,1.559-1.313l0.125-6.461c0.026-1.261-0.51-1.298-1.502-1.378
		l0.009-0.362l5.606,0.108c1.22,0.019,4.905,0.212,4.855,2.671c-0.035,1.797-1.836,2.22-2.781,2.441l3.424,4.24
		c0.237,0.269,0.498,0.287,0.703,0.287L154.072,194.982L154.072,194.982z M146.529,189.791c2.276,0.027,3.19-0.278,3.228-2.173
		c0.026-1.477-0.672-2.125-2.064-2.148c-0.959-0.019-1,0.14-1.093,0.592L146.529,189.791L146.529,189.791z"/>
	<path fill="#FFFFFF" d="M165.5,196.45l-5.6-0.7l0.05-0.363c1.077,0.058,1.39,0.085,1.451-0.385
		c0.047-0.405-0.374-1.543-0.558-2.031l-3.89-0.494c-0.61,0.982-0.958,1.547-0.991,1.777c-0.066,0.55,0.76,0.7,1.343,0.804
		l-0.045,0.357l-3.509-0.433l0.045-0.367c0.942,0,1.248-0.46,1.902-1.48l4.819-7.468l0.485,0.061l2.908,8.107
		c0.586,1.655,0.802,2.183,1.637,2.258L165.5,196.45L165.5,196.45z M160.658,192.368l-1.31-3.743l-2.063,3.325L160.658,192.368
		L160.658,192.368z"/>
	<path fill="#FFFFFF" d="M175.645,198.519l-9.91-1.814l0.065-0.366c0.981,0.074,1.501,0.127,1.661-0.754l1.265-6.959
		c0.166-0.95-0.527-1.11-1.289-1.289l0.063-0.361l5.979,1.105l-0.063,0.356c-1.208-0.178-1.742-0.263-1.97,1.002l-1.232,6.785
		c-0.125,0.696,0.232,0.884,1.38,1.092c2.589,0.474,3.767-0.547,4.849-2.022l0.494,0.089L175.645,198.519L175.645,198.519z"/>
	<path fill="#FFFFFF" d="M182.215,199.99l-5.966-1.254l0.078-0.357c0.932,0.121,1.608,0.206,1.792-0.688l1.434-6.922
		c0.193-0.945-0.602-1.139-1.378-1.345l0.076-0.363l5.965,1.256l-0.075,0.357c-0.807-0.142-1.628-0.291-1.829,0.678l-1.43,6.922
		c-0.193,0.917,0.484,1.101,1.405,1.358L182.215,199.99L182.215,199.99z"/>
	<path fill="#FFFFFF" d="M194.329,201.538l-5.617-0.578l0.037-0.361c1.084,0.036,1.396,0.055,1.443-0.424
		c0.041-0.396-0.404-1.533-0.6-2.022l-3.896-0.404c-0.598,1.001-0.936,1.57-0.957,1.801c-0.059,0.551,0.773,0.682,1.356,0.766
		l-0.035,0.367l-3.52-0.367l0.039-0.356c0.946-0.023,1.24-0.489,1.872-1.528l4.658-7.566l0.486,0.048l3.085,8.046
		c0.621,1.642,0.847,2.163,1.684,2.224L194.329,201.538L194.329,201.538z M189.392,197.56l-1.389-3.715l-1.991,3.362L189.392,197.56
		L189.392,197.56z"/>
	<path fill="#FFFFFF" d="M149.788,83.569c0-3.518-1.968-0.227-3.057-3.207c-0.799,2.52-3.167,0.399-3.167,3.113
		c0,1.039,0.269,1.636,0.773,1.975v1.035c0,0.267,0.212,0.488,0.482,0.488h3.727c0.271,0,0.487-0.221,0.487-0.488v-1.124
		C149.48,84.975,149.788,84.368,149.788,83.569L149.788,83.569z M146.748,84.247c-1.025,0-2.406,0.7-2.406-0.518
		c0-1.722,1.165-1.335,2.192-1.335c1.023,0,2.612-0.387,2.612,1.335C149.146,84.947,147.771,84.247,146.748,84.247L146.748,84.247z"
		/>
	<path fill="#FFFFFF" d="M180.348,126.673c0.894,0,1.613-0.636,1.613-1.42c0-0.781-0.72-1.421-1.613-1.421
		c-0.889,0-1.608,0.64-1.608,1.421C178.739,126.037,179.459,126.673,180.348,126.673L180.348,126.673z"/>
	<path fill="#FFFFFF" d="M172.778,74.648c0,0-0.757,1.269-0.757,1.51c0,0.46,0.347,0.846,0.77,0.846
		c0.421,0,0.764-0.385,0.764-0.846C173.555,76.129,172.778,74.648,172.778,74.648L172.778,74.648z"/>
	<path fill="#FFFFFF" d="M121.192,74.648c0,0-0.757,1.269-0.757,1.51c0,0.46,0.343,0.846,0.769,0.846
		c0.425,0,0.767-0.385,0.767-0.846C121.97,76.129,121.192,74.648,121.192,74.648L121.192,74.648z"/>
	<path fill="#FFFFFF" d="M134.088,74.648c0,0-0.755,1.269-0.755,1.51c0,0.46,0.341,0.846,0.764,0.846
		c0.423,0,0.764-0.385,0.764-0.846C134.862,76.129,134.088,74.648,134.088,74.648L134.088,74.648z"/>
	<path fill="#FFFFFF" d="M146.982,74.648c0,0-0.751,1.269-0.751,1.51c0,0.46,0.343,0.846,0.764,0.846
		c0.423,0,0.766-0.385,0.766-0.846C147.761,76.129,146.982,74.648,146.982,74.648L146.982,74.648z"/>
	<path fill="#FFFFFF" d="M159.878,74.648c0,0-0.751,1.269-0.751,1.51c0,0.46,0.344,0.846,0.765,0.846
		c0.426,0,0.767-0.385,0.767-0.846C160.658,76.129,159.878,74.648,159.878,74.648L159.878,74.648z"/>
	<path fill="#FFFFFF" d="M121.215,92.354c0,0,0.755,1.274,0.755,1.514c0,0.466-0.342,0.836-0.767,0.836
		c-0.426,0-0.769-0.371-0.769-0.836C120.435,93.838,121.215,92.354,121.215,92.354L121.215,92.354z"/>
	<path fill="#FFFFFF" d="M121.215,109.561c0,0,0.755,1.274,0.755,1.509c0,0.462-0.342,0.842-0.767,0.842
		c-0.426,0-0.769-0.38-0.769-0.842C120.435,111.047,121.215,109.561,121.215,109.561L121.215,109.561z"/>
	<path fill="#FFFFFF" d="M123.28,123.184c0,0,0.757,1.27,0.757,1.505c0,0.465-0.346,0.846-0.771,0.846
		c-0.423,0-0.764-0.381-0.764-0.846C122.501,124.669,123.28,123.184,123.28,123.184L123.28,123.184z"/>
	<path fill="#FFFFFF" d="M134.096,130.416c0,0,0.757,1.278,0.757,1.515c0,0.466-0.343,0.842-0.764,0.842
		c-0.423,0-0.771-0.376-0.771-0.842C133.317,131.902,134.096,130.416,134.096,130.416L134.096,130.416z"/>
	<path fill="#FFFFFF" d="M173.436,92.354c0,0-0.756,1.274-0.756,1.514c0,0.466,0.344,0.836,0.765,0.836s0.765-0.371,0.765-0.836
		C174.209,93.838,173.436,92.354,173.436,92.354L173.436,92.354z"/>
	<path fill="#FFFFFF" d="M173.436,109.561c0,0-0.756,1.274-0.756,1.509c0,0.462,0.344,0.842,0.765,0.842s0.765-0.38,0.765-0.842
		C174.209,111.047,173.436,109.561,173.436,109.561L173.436,109.561z"/>
	<path fill="#FFFFFF" d="M171.37,123.184c0,0-0.757,1.27-0.757,1.505c0,0.465,0.344,0.846,0.767,0.846
		c0.426,0,0.769-0.381,0.769-0.846C172.148,124.669,171.37,123.184,171.37,123.184L171.37,123.184z"/>
	<path fill="#FFFFFF" d="M160.55,130.416c0,0-0.755,1.278-0.755,1.515c0,0.466,0.344,0.842,0.767,0.842
		c0.424,0,0.767-0.376,0.767-0.842C161.328,131.902,160.55,130.416,160.55,130.416L160.55,130.416z"/>
	<path fill="#FFFFFF" d="M147.382,138.09c0,0-0.75,1.271-0.75,1.515c0,0.462,0.341,0.838,0.765,0.838
		c0.421,0,0.762-0.376,0.762-0.838C148.159,139.576,147.382,138.09,147.382,138.09L147.382,138.09z"/>
	<path fill="#FFFFFF" d="M168.368,112.429c0.162,0.244,0.571,0.324,1.079,0.146l0.489-1.388c0.039-0.098-0.563-0.645-0.917-0.56
		c-1.38,0.33-2.841,0.49-3.649,1.802c0,0.898,0.646,1.711,1.296,2.121c0.486-0.16,0.569,0.328,0.894,0.573
		c0.08,0.409-0.162,0.738-0.566,0.738c-0.977-0.983-2.679,0.325-3.408-0.902c0.322-1.223,0.972-2.619-0.084-3.758
		c0.084-0.244,0.489-0.489,0.247-0.733c-0.407-1.147-1.625-0.244-2.358-0.244c-1.214-0.17-2.189,0.488-2.918,1.466
		c0.08,0.405,0.239,0.819,0.646,1.229c0.329-0.081,0.491,0,0.571,0.324l-0.816,0.494c0.245,0.244,0.245,0.569,0.327,0.897
		c-0.568,0.244-1.133-0.573-1.378-0.979c0-0.658,0.083-1.806-0.816-1.966c-0.159,0-0.7,0.241-0.7,0.241
		c-0.197,0.249-0.334,0.757-0.334,1.349c0,0.584,0.319,1.463,0.319,1.463s2.503,1.853,3.069,2.995
		c-0.729,1.472-0.729,3.513-2.434,4.327c-0.484,0.329-0.484,0.823-0.484,1.312l0.404,0.329c1.059-0.573,3.085-0.738,2.925-2.534
		c0.404-0.733,0.807-1.552,1.536-2.126c0.815-0.164,1.544,0.249,1.866,0.898c-0.242,1.228-1.051,2.045-2.188,2.45
		c-0.163,0.17-0.083,0.413-0.083,0.658c0.329,0.574,1.221,0.324,1.705,0.245c1.383-0.903,1.949-2.535,3.167-3.024
		c0.16,0.813-1.625,1.063-0.486,1.876c0.729-0.16,1.705,0.085,2.191-0.898c-0.569-1.387,1.944-2.041,0.404-3.268
		c0-1.224,1.298-1.712,1.216-3.023c-0.487-1.304-2.027-1.304-2.434-2.53C167.152,112.095,167.884,112.18,168.368,112.429
		L168.368,112.429z"/>
	<path fill="#FFFFFF" d="M109.106,127.303c0.886,0,1.61-0.639,1.61-1.426c0-0.784-0.724-1.414-1.61-1.414
		c-0.894,0-1.615,0.63-1.615,1.414C107.491,126.664,108.212,127.303,109.106,127.303L109.106,127.303z"/>
	<path fill="#FFFFFF" d="M25.457,176.163c0.876,0,1.584-0.683,1.584-1.524c0-0.831-0.708-1.515-1.584-1.515
		c-0.875,0-1.585,0.684-1.585,1.515C23.871,175.48,24.582,176.163,25.457,176.163L25.457,176.163z"/>
	<path fill="#FFFFFF" d="M78.694,188.032h-0.105l-0.106-0.131h-0.012v0.079c0,0.033,0.009,0.033,0.042,0.037v0.015h-0.172v-0.015
		c0.036-0.004,0.047-0.004,0.047-0.037v-0.183c0-0.038-0.017-0.038-0.047-0.038v-0.019h0.165c0.033,0,0.146,0.009,0.146,0.075
		c0,0.056-0.056,0.066-0.079,0.075l0.101,0.122c0.007,0.004,0.017,0.004,0.021,0.004V188.032L78.694,188.032z M78.471,187.883
		c0.063,0,0.089-0.011,0.089-0.066c0-0.038-0.021-0.057-0.059-0.057c-0.029,0-0.029,0-0.031,0.019V187.883L78.471,187.883z"/>
	<path fill="#FFFFFF" d="M78.915,187.835c-0.007-0.037-0.04-0.085-0.099-0.085c-0.026,0-0.056,0.01-0.056,0.037
		c0,0.029,0.014,0.033,0.054,0.048l0.075,0.037c0.019,0.005,0.054,0.033,0.054,0.075c0,0.048-0.03,0.094-0.127,0.094
		c-0.044,0-0.068-0.019-0.082-0.019c-0.014,0-0.017,0.01-0.02,0.019h-0.016v-0.103h0.016c0.015,0.038,0.041,0.084,0.106,0.084
		c0.059,0,0.063-0.042,0.063-0.042c0-0.033-0.026-0.042-0.056-0.052l-0.035-0.009c-0.084-0.043-0.084-0.085-0.084-0.104
		s0.012-0.081,0.108-0.081c0.042,0,0.066,0.015,0.08,0.015c0.017,0,0.017-0.009,0.019-0.015h0.017v0.1H78.915L78.915,187.835z"/>
	<path fill="#FFFFFF" d="M79.451,187.76c-0.014,0-0.031,0-0.033,0.019l-0.101,0.259h-0.017l-0.085-0.202l0,0l-0.099,0.202h-0.009
		l-0.11-0.259c-0.007-0.019-0.017-0.019-0.038-0.019v-0.019h0.153v0.019c-0.019,0-0.033,0-0.033,0.014c0,0,0,0.005,0.003,0.01
		l0.061,0.155h0.005l0.056-0.128l-0.016-0.042c-0.01-0.009-0.012-0.009-0.038-0.009v-0.019h0.16v0.019c-0.021,0-0.038,0-0.038,0.009
		c0,0.01,0.005,0.015,0.005,0.029l0.057,0.141h0.002l0.054-0.151c0.002-0.004,0.004-0.009,0.004-0.014
		c0-0.014-0.019-0.014-0.038-0.014v-0.019h0.094V187.76L79.451,187.76z"/>
	<path fill="#FFFFFF" d="M79.465,188.022c0.052-0.009,0.113-0.027,0.137-0.103c-0.007,0-0.009,0-0.024,0c-0.007,0-0.014,0-0.021,0
		c-0.04,0-0.094-0.015-0.094-0.085c0-0.024,0.017-0.1,0.113-0.1c0.042,0,0.117,0.024,0.117,0.127c0,0.076-0.075,0.16-0.228,0.175
		V188.022L79.465,188.022z M79.583,187.905c0.01,0,0.024-0.004,0.024-0.004c0-0.01,0.005-0.029,0.005-0.043
		c0-0.08-0.009-0.108-0.04-0.108c-0.033,0-0.033,0.028-0.033,0.061C79.538,187.872,79.55,187.905,79.583,187.905L79.583,187.905z"/>
	<path fill="#FFFFFF" d="M79.759,187.835c0.042,0,0.076,0,0.106,0.019c0.028,0.009,0.054,0.038,0.054,0.08
		c0,0.062-0.054,0.099-0.143,0.099c-0.038,0-0.073-0.015-0.073-0.037c0-0.01,0.011-0.024,0.032-0.024
		c0.031,0,0.063,0.037,0.097,0.037c0.014,0,0.047-0.013,0.047-0.042c0-0.027-0.025-0.046-0.054-0.061
		c-0.03-0.01-0.07-0.01-0.106-0.014l0.048-0.15h0.164l-0.026,0.057h-0.138L79.759,187.835L79.759,187.835z"/>
	<path fill="#FFFFFF" d="M177.063,72.603V72.57H117.54v0.033h-0.012l0.05,45.492c0,4.638,1.965,8.69,4.677,9.941l22.895,14.536
		c0.503,0.574,1.249,0.94,2.086,0.94c0.724,0,1.371-0.281,1.864-0.729l23.243-14.747c2.72-1.251,4.684-5.304,4.684-9.941
		l0.045-45.492H177.063L177.063,72.603z M175.387,118.697c-0.311,3.446-1.481,6.311-3.865,7.928l-22.437,14.272h-0.125
		c-0.473,0.372-1.067,0.607-1.725,0.607c-0.67,0-1.277-0.239-1.759-0.63l-22.398-14.25c-2.382-1.617-3.55-4.481-3.866-7.928V74.202
		h56.175V118.697L175.387,118.697z"/>
	<path fill="#FFFFFF" d="M155.313,138.898l0.725-0.337C155.737,138.665,155.509,138.777,155.313,138.898L155.313,138.898z"/>
	<path fill="#FFFFFF" d="M110.416,201.077l-5.612,0.648l-0.041-0.361c1.065-0.193,1.378-0.244,1.319-0.725
		c-0.042-0.395-0.722-1.406-1.018-1.839l-3.894,0.451c-0.365,1.102-0.572,1.731-0.546,1.962c0.062,0.551,0.901,0.503,1.491,0.466
		l0.042,0.357l-3.515,0.403l-0.042-0.357c0.924-0.225,1.108-0.748,1.505-1.896l2.928-8.403l0.484-0.056l4.733,7.187
		c0.964,1.466,1.296,1.927,2.126,1.805L110.416,201.077L110.416,201.077z M104.742,198.265l-2.154-3.325l-1.22,3.716
		L104.742,198.265L104.742,198.265z"/>
	<path fill="#FFFFFF" d="M208.991,179.756c-1.022-2.662-3.163-4.468-5.811-5.328c-2.734-0.598-5.638-0.175-7.43,1.895
		c-3.072,2.493-0.94,6.622-0.855,9.979c0,0.686,0.089,1.199-0.595,1.548c-12.388-1.12-23.916-4.215-36.215-5.508
		c-2.829-0.488-5.66-0.357-8.348-0.931l-3.439-0.357c-10.677,0.343-21.354,0.949-31.348,3.526c-2.13,0.687-4.526,0.856-6.661,1.638
		c-1.533-0.264-2.814,0.854-4.27,0.427l-2.81,0.654c-0.265,0.046-0.578,0.037-0.945-0.052c-1.366-3.527,2.73-5.676,1.448-9.118
		c-1.107-1.985-3.329-3.876-5.89-3.527c-2.904-0.349-5.467,1.289-6.835,3.527c-1.964,4.298,0.515,8.774,1.281,12.988
		c-0.174,1.373,1.366,2.925,0,4.044c-2.732-1.891-6.32-2.93-9.65-1.984c-1.025,0.518-2.906-0.164-3.414,1.039
		c3.673,1.977,8.368,1.717,12.464,1.547c0.515-0.173,0.856-0.263,1.284,0.085c0.341,2.238-0.428,5.248,0.94,7.232
		c1.535,2.061,4.099,2.578,6.577,2.836c7.858-0.258,14.858-2.582,22.034-4.393c1.112-0.079,1.965-0.682,3.16-0.682
		c3.844-0.864,8.032-1.552,12.13-1.642c-1.796,2.323-2.819,4.905-3.591,7.746c-1.022,2.322,1.794,2.661,2.65,3.959
		c-2.65,0.771-4.528,2.578-7.002,3.611c-5.469-0.173-10.08,1.891-15.208,2.493c-0.083,1.119,1.794,0.771,1.968,1.89
		c-0.259,0.777-1.025,0.865-1.625,1.295c-0.083,0.512,0,0.601,0.515,0.69c0.51-0.603,1.622-0.179,2.135-0.781
		c1.707,0,3.16-0.508,4.78-0.597c1.456-0.607,3.076-0.692,4.359-1.726c1.792-0.509,2.904-1.717,4.698-2.229
		c2.558,0,4.864-0.865,7.258-1.035v0.518c-1.965,3.18-4.011,6.453-6.066,9.462c-0.341,0.602,0.086,1.204,0.6,1.373
		c1.196,0.349,2.389,0,3.33-0.512c1.796-3.1,3.416-6.025,4.871-9.208c0.6-2.926,2.73-4.473,4.87-6.447
		c0.341-0.174,0.852-0.696,1.192-0.174c-1.707,1.979-2.817,3.87-4.096,6.023c-0.687,2.402-0.861,5.503,1.279,7.478
		c1.025,0.865,2.561,0.602,3.929,0.69c3.328-1.717,7.6,1.03,10.165-2.232c1.533-0.264,1.789,1.542,2.645,2.407
		c1.451,0.428,2.991,1.891,4.442,0.855c-0.085-0.94-1.11-1.806-1.623-2.662c-1.024-1.806-2.306-3.273-3.244-4.903
		c-0.431-1.205-1.197-1.98-1.371-3.185c1.54,0.517,2.906,1.552,4.615,1.807c1.453,0.601,3.245,0.516,4.611,1.378
		c1.115,1.462,2.819,2.322,4.271,3.262c2.132,1.041,4.528,1.209,6.748,2.07c0.855,0.089,2.14,0.775,2.734,0
		c-0.346-0.429-0.771-0.692-1.279-0.95c-0.259-1.12,1.533-0.512,2.133-1.372c-0.207-0.42-0.583-0.599-0.987-0.654
		c-1.228-0.649-4.271-0.884-5.077-1.326c-1.022-0.17-1.966-0.603-2.988-0.941c-5.123,0-7.945-4.65-12.043-6.367
		c0.94-0.86,2.391-1.552,2.99-2.84c0.767-1.204,1.025-3.188,0.257-4.562c-0.771-2.662-4.188-2.323-6.151-3.786l0.259-0.258
		c3.327-0.17,6.235,0.603,9.225,1.203c8.194,1.12,15.798,4.214,24.343,4.393c4.695,0,10.588,0.255,12.893-4.308
		c0.428-2.662,0.938-5.333,1.368-7.995C206.6,188.45,209.415,184.495,208.991,179.756L208.991,179.756z M116.745,218.995
		l-1.192-1.12c0.597-0.781,1.879-0.348,2.814-0.865c2.222-0.688,4.787-1.548,7.261-1.03
		C123.07,218.044,119.738,218.299,116.745,218.995L116.745,218.995z M170.068,217.621c2.043,0.917,6.148,1.815,9.108,2.153
		c-0.263,1.166-2.347,0.075-2.106,1.713c-2.647-1.026-5.719-1.548-7.685-3.612C169.553,217.79,169.728,217.532,170.068,217.621
		L170.068,217.621z M89.931,181.054c0.253-1.553,0.595-3.185,2.047-4.308c2.048-1.115,4.87-0.855,6.749,0.263
		c0.595,0.349,1.028,0.86,1.371,1.638c0.423,1.457-0.261,3.009-1.286,3.87h-0.854c0-1.378,0-2.761,0.513-3.87
		c-0.087-1.035-0.938-1.12-1.623-1.553c-1.455-0.433-2.736,0.264-3.846,0.865c-0.851,1.025-1.623,2.314-1.108,3.78
		c0.598,0.946,0.084,2.24,0.425,3.27l-0.258,0.343C91.038,184.237,89.67,183.033,89.931,181.054L89.931,181.054z M93.945,183.508
		c1.279,0.95,3.071,0.518,4.613,0.781c0.254,0.94,0.254,2.144-0.427,2.925c-1.456-0.348-3.333-0.173-4.104-1.547
		C94.201,185.061,93.771,184.204,93.945,183.508L93.945,183.508z M93.686,180.621c0.259-0.687,0-1.717,0.94-1.89
		c0.597-0.17,1.538-0.17,1.622,0.516c-0.084,1.026-0.171,2.062-0.425,3.01C94.626,182.342,94.027,181.655,93.686,180.621
		L93.686,180.621z M133.74,208.234c-0.423-3.009,0.773-5.591,2.74-7.741c1.192-0.254,2.563-0.516,3.672,0.17
		c-2.222,0.603-5.041,1.12-5.556,3.96c0.086,1.118-0.257,1.721,0.258,2.671c0.94,1.627,3.076,0.94,4.272,2.234
		c0,0.428-0.341,0.945-0.769,1.03C136.903,209.702,135.111,209.354,133.74,208.234L133.74,208.234z M130.667,214.169
		c2.055-0.855,4.188-2.662,6.494-1.89C135.537,213.566,132.889,214.084,130.667,214.169L130.667,214.169z M138.786,215.034
		c-1.199,2.747-2.565,5.412-4.189,8.084c-0.167,0.433-0.856,0.513-1.364,0.602c0-1.203,1.197-2.153,1.707-3.183
		c1.794-2.323,2.307-4.815,4.354-7.054C139.81,214,138.786,214.344,138.786,215.034L138.786,215.034z M140.917,210.045v0.344h-0.169
		v-0.344v-0.089h0.344c-0.087,0-0.256,0-0.344,0.089H140.917L140.917,210.045z M140.152,207.718
		c-1.453-0.169-2.824-0.603-4.101-1.025c-0.856-0.866,0-1.815,0-2.76c1.194-1.887,4.609-2.837,6.233-1.115
		C142.026,204.708,141.345,206.344,140.152,207.718L140.152,207.718z M142.026,207.718c0.259-1.114,0.774-2.577,1.371-3.612
		C143.308,205.226,142.8,206.776,142.026,207.718L142.026,207.718z M142.967,200.748c-1.11-0.255-1.709-1.548-2.899-1.548
		c1.023-0.343,2.046-0.253,3.24-0.084C143.738,199.718,143.056,200.239,142.967,200.748L142.967,200.748z M143.992,203.334h-0.085
		v-0.949h0.085V203.334L143.992,203.334z M144.081,207.294c-0.089-0.348,0.167-0.775,0.256-1.204
		c0.426-0.432,0.852,0.344,1.025,0.603C145.106,207.115,144.589,207.379,144.081,207.294L144.081,207.294z M145.362,201.962
		c0.426-1.214,0.51-2.244,1.279-3.189c0.854,0,1.62,0,2.303,0.344c0.173,1.726,2.309,4.044,0,5.507
		c-0.767,0.349-1.877,1.118-2.73,0.349C145.106,204.021,144.93,203.16,145.362,201.962L145.362,201.962z M151.594,199.549
		c-0.169-0.776,0.771-0.174,1.112-0.518l2.647,0.169C153.982,199.031,152.275,202.216,151.594,199.549L151.594,199.549z
		 M155.866,200.663c-1.027,0.348-1.794,1.553-2.817,1.815C153.56,201.523,154.839,200.578,155.866,200.663L155.866,200.663z
		 M152.275,205.996v0.263h-0.084v-0.263H152.275L152.275,205.996z M152.449,211.249c-0.084,0.17,0.083,0.428-0.174,0.603
		l-1.963-1.548C151.253,210.129,151.937,210.559,152.449,211.249L152.449,211.249z M150.146,208.582
		c0.167-0.174,0.598-0.174,0.766,0H150.146L150.146,208.582z M148.944,207.294c0.341-0.518,0.773-1.298,1.368-1.298
		c0,0.094,0.087,0.179,0.174,0.263C149.969,206.692,149.544,207.115,148.944,207.294L148.944,207.294z M146.982,207.115h-0.341
		l0.513-0.512C147.411,206.776,147.067,206.946,146.982,207.115L146.982,207.115z M147.237,210.389
		c1.114-1.204,2.138,0.686,2.565,1.632c1.284,1.895,4.611,3.611,3.332,6.193c-1.624,1.463-4.189,0.085-5.979,1.203
		c-0.94-0.085-2.565,0.179-3.074-0.771C145.02,215.891,145.873,212.797,147.237,210.389L147.237,210.389z M144.848,212.021
		l0.426-0.687c-0.684,2.064-1.709,4.218-2.819,6.193C141.942,215.462,144.081,213.821,144.848,212.021L144.848,212.021z
		 M148.605,222.258c-1.623,0.09-4.099,1.034-5.639-0.349c0.089-0.686-0.682-1.024-0.595-1.715c1.366-0.518,2.558,1.114,3.842-0.091
		c1.963,0.091,4.013-0.254,5.977,0.179c0.942,0.255,2.394-1.551,2.564,0.255C154.072,223.377,150.658,221.397,148.605,222.258
		L148.605,222.258z M153.56,209.871v-0.264h0.171v0.264H153.56L153.56,209.871z M154.072,215.289
		c0.084,0.86,0.942,1.203,0.426,1.983C154.326,216.925,153.815,216.149,154.072,215.289L154.072,215.289z M156.466,220.446
		l-0.428,0.175c-0.429-0.339-0.257-1.289-0.172-1.807C156.379,219.248,156.807,219.85,156.466,220.446L156.466,220.446z
		 M160.735,222.517c-0.089,0.259-0.517,0.259-0.685,0.089c-2.563-3.273-3.76-6.715-5.384-10.326l0.348-0.085
		C157.063,215.552,158.686,219.248,160.735,222.517L160.735,222.517z M163.894,214.602c-0.17,0.085-0.17,0.259-0.17,0.343
		c-2.478,0.09-4.103-1.378-5.977-2.665l-0.092-0.428C159.965,212.021,161.843,213.483,163.894,214.602L163.894,214.602z
		 M161.674,203.16c1.025,0.259,1.109,1.373,1.194,2.233c-0.085,1.9-1.107,3.527-2.903,4.214c-0.938,0.521-2.392,0.696-3.332,0.349
		c2.053-0.085,4.27-0.856,5.128-2.921L161.674,203.16L161.674,203.16z M159.795,202.817c0.424,1.203,1.197,2.323,0.767,3.786
		c-0.852,1.631-2.563,1.631-4.096,1.979c-0.769,0.085-1.371-0.174-1.968-0.606c0.087-0.343-0.085-0.597-0.342-0.86
		c0.257-1.119-1.965-2.238-0.426-3.183C155.095,202.644,158.34,199.718,159.795,202.817L159.795,202.817z M203.181,196.535
		c-0.682,0.865-0.084,2.237-0.936,3.014c0,1.547-1.284,2.318-2.396,2.93c-10.163,2.229-20.153-1.213-29.977-2.93
		c-13.75-3.014-29.806-3.87-43.819-0.691c-6.575,1.205-12.977,2.756-19.297,4.562c-3.929,0.514-8.199,1.114-11.959-0.085
		c-3.075-1.467-1.796-5.417-2.736-8.173c0.174-2.148-0.598-3.874-0.683-5.934c-0.256-0.688-0.425-1.553-0.341-2.24
		c1.281,0.17,2.565,1.12,3.929,1.463c7.177,1.374,13.582-0.949,20.245-2.148c6.405-1.374,12.981-2.497,19.727-3.015
		c7.687-0.085,15.547-0.513,22.89,0.776c2.39,0.084,4.441,0.686,6.744,0.864c4.789,0.603,9.229,1.892,14.099,2.229
		c0.766,0.264,1.706,0.264,2.56,0.433c7.685,1.204,16.312,3.358,23.657,0C204.889,190.685,203.611,193.524,203.181,196.535
		L203.181,196.535z M200.79,186.048c0.085,1.373-1.194,1.024-1.876,1.542h-2.053c-0.426-0.687-0.252-1.721-0.252-2.407
		C197.974,185.437,199.509,185.437,200.79,186.048L200.79,186.048z M199.85,183.889c0.94-0.944-0.254-6.362,2.396-2.835
		c0,0.686,0.085,1.721-0.6,2.233C201.216,183.635,200.534,184.327,199.85,183.889L199.85,183.889z M206.767,183.033
		c-0.764,1.547-1.963,2.667-3.67,2.921c0.084-2.065,1.964-3.527,1.281-5.851c-1.109-1.636-3.332-2.145-5.38-1.717
		c-0.771,0.518-0.425,1.369-0.684,2.149l-0.341,2.841c-1.712,0-1.797-1.547-2.308-2.756c0.085-1.806,0.854-3.612,2.648-4.478
		c1.365-0.686,3.588-0.601,4.954,0.179c1.109,0.26,2.393,0.771,2.816,1.807C207.369,179.332,207.026,181.486,206.767,183.033
		L206.767,183.033z"/>
</g>
</svg>
